<svg xmlns="http://www.w3.org/2000/svg" width="341" height="58" viewBox="0 0 341 58"><defs><style>.a{fill:#00c68e;font-size:41px;font-family:Moon2.0-Regular, 'Moon 2.0';letter-spacing:0.01em;}.b{fill:#50e0b0;}.c{opacity:0.28;}.d,.e{fill:#f2fdfa;stroke:#f5f5f5;}.d{stroke-width:0.3px;}.e{stroke-width:0.1px;}</style></defs><g transform="translate(-148 -2795)"><text class="a" transform="translate(357 2841)"><tspan x="-131.61" y="0">Tezster-Bundle</tspan></text><g transform="translate(152.775 2795)"><rect class="b" width="53" height="56" rx="5" transform="translate(56.224 0) rotate(90)"/></g><g class="c" transform="translate(148.098 2799.677)"><rect class="b" width="53" height="56" rx="5" transform="translate(55.902 0.323) rotate(90)"/></g><g transform="translate(169.342 2807.36)"><g transform="translate(0 0)"><path class="d" d="M98.548-500.142a1.853,1.853,0,0,1,.954,1.761c-.022,4.337-.01,8.676-.01,13.014,0,.881-.089,1-.945,1.235a1.19,1.19,0,0,0-.241.149c0,.929-.013,1.868,0,2.808.012.572-.07,1.075-.656,1.338,0,1.46-.052,2.891.027,4.311a6.038,6.038,0,0,0,.595,1.611L97.6-471.2H95.927l-.734-2.87a3.662,3.662,0,0,0,.681-2.837c-.021-.974,0-1.947,0-2.949-.531-.213-.617-.642-.595-1.153.024-.8.013-1.592,0-2.389a6.274,6.274,0,0,0-.082-.679c-.168-.033-.3-.055-.415-.08a.874.874,0,0,1-.743-.892v-13.7c0-.65.424-1.041,1.1-1.406H86.19a1.392,1.392,0,0,1-1.051-.345,1.393,1.393,0,0,1-.468-1,1.414,1.414,0,0,1,.425-1.078,1.414,1.414,0,0,1,1.088-.4h21.153a1.432,1.432,0,0,1,1.069.391,1.431,1.431,0,0,1,.446,1.047,1.411,1.411,0,0,1-.465,1.031,1.411,1.411,0,0,1-1.073.358h-8.77Zm.358,3.043H94.628c-.18.907-.083,12.019.122,12.372,1.32,0,1.006,1.04,1.07,1.834h1.873c.149-1.424.149-1.424,1.213-1.968Zm.052-.568c0-.391.025-.716,0-1.041a.922.922,0,0,0-.938-.872q-1.266-.022-2.527,0a.832.832,0,0,0-.865.712,7.133,7.133,0,0,0-.013,1.2ZM96.41-479.83c0,1.085-.016,2.138,0,3.19a3.548,3.548,0,0,1-.623,2.65l.566,2.23h.816c.165-.676.337-1.338.479-2a.668.668,0,0,0-.1-.446,3.169,3.169,0,0,1-.43-1.953c.03-.681,0-1.365,0-2.047v-1.613ZM95.8-482.27c0,.517-.01.984,0,1.451,0,.116.089.324.149.327.537.03,1.075.033,1.613.015.055,0,.149-.18.149-.278.015-.5,0-.993,0-1.516Z" transform="translate(-84.669 502.978)"/><path class="e" d="M201.762-379.42H200.1v-5.408h1.668Zm-1.139-4.89v4.34h.6v-4.34Z" transform="translate(-188.839 396.356)"/><path class="e" d="M201.076-410.14a.826.826,0,0,0-.826.826.826.826,0,0,0,.826.826.826.826,0,0,0,.826-.826A.826.826,0,0,0,201.076-410.14Zm0,1.144a.319.319,0,0,1-.226-.093.318.318,0,0,1-.094-.226.32.32,0,0,1,.32-.319.319.319,0,0,1,.32.319.317.317,0,0,1-.1.229.319.319,0,0,1-.232.09Z" transform="translate(-188.979 419.2)"/><path class="e" d="M201.17-435.25a.824.824,0,0,0-.585.242.825.825,0,0,0-.242.585.825.825,0,0,0,.242.585.825.825,0,0,0,.585.242.825.825,0,0,0,.585-.242.825.825,0,0,0,.242-.585.825.825,0,0,0-.242-.585A.824.824,0,0,0,201.17-435.25Zm0,1.145a.32.32,0,0,1-.32-.32.318.318,0,0,1,.094-.226.317.317,0,0,1,.226-.093.318.318,0,0,1,.226.093.318.318,0,0,1,.094.226A.32.32,0,0,1,201.17-434.105Z" transform="translate(-189.059 441.862)"/></g></g></g></svg>