<svg xmlns="http://www.w3.org/2000/svg" xmlns:xlink="http://www.w3.org/1999/xlink" width="427.736" height="369.146" viewBox="0 0 427.736 369.146"><defs><style>.a{fill:url(#a);}.b{fill:url(#b);}.c{fill:#fcfcfd;}.d{fill:url(#c);}.e{fill:#b5dbff;}.f{fill:#50e0b0;}.g{fill:#41ce9f;}.h{fill:url(#d);}</style><linearGradient id="a" x1="0.231" y1="0.127" x2="0.794" y2="0.907" gradientUnits="objectBoundingBox"><stop offset="0" stop-color="#edf5ff"/><stop offset="1" stop-color="#d5e8fe"/></linearGradient><linearGradient id="b" x1="0.493" y1="-0.073" x2="0.508" y2="1.452" gradientUnits="objectBoundingBox"><stop offset="0" stop-color="#b5dbff"/><stop offset="1" stop-color="#48b2e3"/></linearGradient><linearGradient id="c" x1="0.5" y1="0.477" x2="0.5" y2="1.583" gradientUnits="objectBoundingBox"><stop offset="0" stop-color="#b5dbff" stop-opacity="0"/><stop offset="0.243" stop-color="#93cef6" stop-opacity="0.243"/><stop offset="0.576" stop-color="#6abfec" stop-opacity="0.576"/><stop offset="0.84" stop-color="#51b5e5" stop-opacity="0.839"/><stop offset="1" stop-color="#48b2e3"/></linearGradient><linearGradient id="d" x1="0.31" y1="0.075" x2="0.8" y2="0.78" gradientUnits="objectBoundingBox"><stop offset="0" stop-color="#0b799d"/><stop offset="1" stop-color="#07485e"/></linearGradient></defs><g transform="translate(-949.133 -4666.535)"><g transform="translate(949.133 4644.231)"><g transform="translate(0 22.303)"><path class="a" d="M411.455,330.949H16.281A16.281,16.281,0,0,1,0,314.668V38.584A16.281,16.281,0,0,1,16.281,22.3H411.455a16.281,16.281,0,0,1,16.281,16.281V314.668A16.281,16.281,0,0,1,411.455,330.949Z" transform="translate(0 -22.303)"/><path class="b" d="M427.736,88.2H0V38.584A16.281,16.281,0,0,1,16.281,22.3H411.455a16.281,16.281,0,0,1,16.281,16.281Z" transform="translate(0 -22.303)"/><g transform="translate(16.775 23.437)"><path class="c" d="M35.048,68.565H27.667A7.666,7.666,0,0,1,20,60.9V53.519a7.666,7.666,0,0,1,7.666-7.666h7.381a7.666,7.666,0,0,1,7.666,7.666V60.9A7.666,7.666,0,0,1,35.048,68.565Z" transform="translate(-20.001 -45.853)"/><path class="c" d="M75.179,68.565H67.8A7.666,7.666,0,0,1,60.131,60.9V53.519A7.666,7.666,0,0,1,67.8,45.853h7.381a7.666,7.666,0,0,1,7.666,7.666V60.9A7.664,7.664,0,0,1,75.179,68.565Z" transform="translate(-31.173 -45.853)"/><path class="c" d="M115.31,68.565h-7.381a7.666,7.666,0,0,1-7.666-7.666V53.519a7.666,7.666,0,0,1,7.666-7.666h7.381a7.666,7.666,0,0,1,7.666,7.666V60.9A7.666,7.666,0,0,1,115.31,68.565Z" transform="translate(-42.346 -45.853)"/></g><path class="d" d="M0,300.8v58.792a16.281,16.281,0,0,0,16.281,16.281H411.455a16.281,16.281,0,0,0,16.281-16.281V300.8Z" transform="translate(0 -67.225)"/><g transform="translate(40.748 111.473)"><path class="e" d="M147.156,283.09H59.6a11.013,11.013,0,0,1-11.013-11.013V166.228A11.013,11.013,0,0,1,59.6,155.215h87.558a11.013,11.013,0,0,1,11.013,11.013V272.077a11.013,11.013,0,0,1-11.013,11.014Z" transform="translate(-48.585 -155.215)"/><g transform="translate(131.533 0)"><g transform="translate(0)"><path class="e" d="M273.432,187.086H213.383a7.967,7.967,0,0,1-7.968-7.968V163.183a7.967,7.967,0,0,1,7.968-7.968h60.049a7.967,7.967,0,0,1,7.968,7.968v15.935A7.968,7.968,0,0,1,273.432,187.086Z" transform="translate(-205.415 -155.215)"/><path class="e" d="M430.22,187.086H325.383a7.967,7.967,0,0,1-7.968-7.968V163.183a7.967,7.967,0,0,1,7.968-7.968H430.22a7.967,7.967,0,0,1,7.968,7.968v15.935A7.968,7.968,0,0,1,430.22,187.086Z" transform="translate(-223.481 -155.215)"/></g><g transform="translate(0 48.002)"><path class="e" d="M378.785,244.32h60.049a7.967,7.967,0,0,0,7.968-7.968V220.417a7.967,7.967,0,0,0-7.968-7.968H378.785a7.967,7.967,0,0,0-7.968,7.968v15.935A7.967,7.967,0,0,0,378.785,244.32Z" transform="translate(-232.095 -212.449)"/><path class="e" d="M213.383,244.32H318.22a7.967,7.967,0,0,0,7.968-7.968V220.417a7.967,7.967,0,0,0-7.968-7.968H213.383a7.967,7.967,0,0,0-7.968,7.968v15.935a7.967,7.967,0,0,0,7.968,7.968Z" transform="translate(-205.415 -212.449)"/></g><g transform="translate(0 96.005)"><path class="e" d="M273.432,301.555H213.383a7.967,7.967,0,0,1-7.968-7.968V277.652a7.967,7.967,0,0,1,7.968-7.968h60.049a7.967,7.967,0,0,1,7.968,7.968v15.935A7.968,7.968,0,0,1,273.432,301.555Z" transform="translate(-205.415 -269.684)"/><path class="e" d="M430.22,301.555H325.383a7.967,7.967,0,0,1-7.968-7.968V277.652a7.967,7.967,0,0,1,7.968-7.968H430.22a7.967,7.967,0,0,1,7.968,7.968v15.935A7.968,7.968,0,0,1,430.22,301.555Z" transform="translate(-223.481 -269.684)"/></g></g></g></g></g><g transform="translate(658.984 1634.178)"><path class="f" d="M50.721,0A50.721,50.721,0,1,1,0,50.721,50.721,50.721,0,0,1,50.721,0Z" transform="translate(462.102 3300.062)"/><path class="g" d="M246.994,298.3l-38.808,38.808a6.317,6.317,0,0,1-2.151,1.352,1.893,1.893,0,0,1-1.364-.565L186.312,319.54a9.362,9.362,0,0,0-13.508,0c-3.839,3.839-4.232,9.276-.393,13.115l45.005,45A50.73,50.73,0,0,0,246.994,298.3Z" transform="translate(306.787 3022.551)"/><path class="h" d="M205.781,340.166a21.447,21.447,0,0,1-15.266-6.323l-18.358-18.358a9.83,9.83,0,0,1,13.9-13.9l18.359,18.358a1.929,1.929,0,0,0,2.728,0l48.68-48.681a9.83,9.83,0,1,1,13.9,13.9l-48.681,48.681A21.445,21.445,0,0,1,205.781,340.166Z" transform="translate(307.042 3039.731)"/></g></g></svg>