<svg xmlns="http://www.w3.org/2000/svg" width="434.799" height="443.476" viewBox="0 0 434.799 443.476"><defs><style>.a,.b{fill:#50e0b0;}.b{opacity:0.59;}.c{fill:#8de2c5;opacity:0.38;}.d,.e,.f{fill:none;stroke:#50e0b0;stroke-linecap:round;stroke-linejoin:round;}.d{stroke-width:1.5px;}.e{stroke-width:2px;}.g{fill:#fff;}.h{isolation:isolate;}</style></defs><g transform="translate(-912.62 -2846.247)"><g transform="translate(1081.818 2994.244)"><path class="a" d="M281.746,368.858l-48.2-29.3V287.32l48.2,29.295Z" transform="translate(-233.546 -257.537)"/><path class="b" d="M252.775,368.858l48.2-29.3V287.32l-48.2,29.295Z" transform="translate(-204.575 -257.537)"/><path class="c" d="M281.742,275.438l-48.156,29.818,48.044,29.749,48.156-29.819Z" transform="translate(-233.486 -275.438)"/></g><g transform="translate(1083.477 3219.664)"><rect class="d" width="16.118" height="41.102" transform="translate(8.462 28.207)"/><rect class="d" width="16.118" height="55.608" transform="translate(37.475 13.701)"/><rect class="d" width="16.118" height="69.309" transform="translate(67.697)"/><line class="d" x1="93.083" transform="translate(0 69.309)"/></g><line class="e" y2="136.864" transform="translate(1130.02 2847.247)"/><line class="e" y2="102.397" transform="translate(1130.02 3114.622)"/><line class="e" x1="151.446" y2="73.989" transform="translate(1188.652 2946.731)"/><line class="e" x1="151.446" y2="73.99" transform="translate(919.939 3078.012)"/><line class="e" x1="155.782" y1="64.36" transform="translate(1190.33 3074.283)"/><line class="e" x1="155.782" y1="64.36" transform="translate(913.926 2960.089)"/><path class="a" d="M203.743,224.665c-5.871-3.58-13.561,1.05-13.561,7.783s7.69,11.365,13.561,7.783a8.795,8.795,0,0,0,0-15.566Z" transform="translate(782.938 2640.434)"/><path class="a" d="M236.449,226a13.166,13.166,0,0,0-1.985-.887c-3.349-1.334-6.883,2.005-6.883,5.244s3.534,6.58,6.883,5.247a13.184,13.184,0,0,0,1.985-.89A5.1,5.1,0,0,0,236.449,226Z" transform="translate(839.283 2642.526)"/><path class="a" d="M216.817,260.284c-5.344,0-5.344,8.29,0,8.29S222.164,260.284,216.817,260.284Z" transform="translate(817.029 2695.973)"/><path class="a" d="M173.917,289.384c-8.751,0-8.751,13.571,0,13.571S182.67,289.384,173.917,289.384Z" transform="translate(748.543 2739.818)"/><path class="a" d="M190.023,304.262c-3.407,0-3.407,5.282,0,5.282S193.432,304.262,190.023,304.262Z" transform="translate(778.848 2762.234)"/><path class="a" d="M212.933,365.1a6.347,6.347,0,1,0,6.349,6.347A6.407,6.407,0,0,0,212.933,365.1Z" transform="translate(807.652 2853.898)"/><path class="a" d="M239.1,353.1l-.216-.228c-3.329-3.544-9.393-.8-9.393,3.89s6.064,7.435,9.393,3.89l.216-.228A5.263,5.263,0,0,0,239.1,353.1Z" transform="translate(842.168 2833.044)"/><path class="a" d="M217.621,332.766c-3.607,0-3.607,5.595,0,5.595S221.231,332.766,217.621,332.766Z" transform="translate(820.203 2805.181)"/><path class="a" d="M286.324,345.2a8.753,8.753,0,1,0,8.753,8.753A8.833,8.833,0,0,0,286.324,345.2Z" transform="translate(914.604 2823.918)"/><path class="a" d="M312.494,344.809c-4.008,0-4.008,6.217,0,6.217S316.5,344.809,312.494,344.809Z" transform="translate(962.693 2823.326)"/><circle class="a" cx="6.475" cy="6.475" r="6.475" transform="translate(1325.4 3023.213)"/><path class="a" d="M318.313,280.849a8.288,8.288,0,1,0,8.287,8.287A8.365,8.365,0,0,0,318.313,280.849Z" transform="translate(963.504 2726.958)"/><path class="a" d="M326.6,304.059a5.734,5.734,0,0,0-5.377,0c-3.188,1.429-3.306,6.136-1.078,8.367a5.384,5.384,0,0,0,7.535,0C329.911,310.2,329.793,305.488,326.6,304.059Z" transform="translate(976.467 2760.92)"/><circle class="a" cx="8.65" cy="8.65" r="8.65" transform="translate(1212.168 2872.189)"/><path class="a" d="M285.829,249.46a7.047,7.047,0,0,0-6.678-5.084,7.686,7.686,0,0,0-6.8,3.7,7.935,7.935,0,0,0,.165,8,6.908,6.908,0,0,0,5.948,3.414c2.238,0,4.966-1.271,5.948-3.414a1.73,1.73,0,0,1,.276-.491l.115-.228c.05-.11.083-.185.128-.286A7.044,7.044,0,0,0,285.829,249.46Z" transform="translate(905.225 2671.994)"/><line class="f" x2="46.411" y2="32.975" transform="translate(922.459 3036.162)"/><path class="f" d="M245.422,314.542l-51.6-87.519H284.1" transform="translate(788.426 2645.86)"/><line class="f" y1="43.086" x2="36.889" transform="translate(1183.93 2880.839)"/><path class="f" d="M313.332,284.155l50.61,14.027L332.1,337.2" transform="translate(968.484 2731.94)"/><line class="f" y1="6.63" x2="74.258" transform="translate(1200.928 3171.242)"/><path class="f" d="M209.119,418.483l56.621-35.538-39.382-49.064" transform="translate(811.469 2806.862)"/><g transform="translate(674 1593)"><circle class="g" cx="13" cy="13" r="13" transform="translate(443 1447)"/><g class="h" transform="translate(449 1451)"><path class="a" d="M8.428,17.766a3.688,3.688,0,0,1-2.776-.916,2.828,2.828,0,0,1-.872-1.974,1.309,1.309,0,0,1,.153-.652,1.129,1.129,0,0,1,.416-.417,1.452,1.452,0,0,1,1.3,0,1.11,1.11,0,0,1,.414.417,1.283,1.283,0,0,1,.158.652A1.246,1.246,0,0,1,7,15.639a1.035,1.035,0,0,1-.528.386,1.441,1.441,0,0,0,.833.519,4.126,4.126,0,0,0,1.135.164,2.531,2.531,0,0,0,1.43-.427,2.5,2.5,0,0,0,.933-1.263,5.487,5.487,0,0,0,.305-1.89,5.187,5.187,0,0,0-.333-1.965A2.426,2.426,0,0,0,9.807,9.94a2.561,2.561,0,0,0-1.388-.4,2.64,2.64,0,0,0-1.2.408l-.891.447V9.952l4.006-5.374H4.78v5.576A2,2,0,0,0,5.085,11.3a1.052,1.052,0,0,0,.933.447,1.56,1.56,0,0,0,.922-.325,3.328,3.328,0,0,0,.772-.794.277.277,0,0,1,.1-.133.205.205,0,0,1,.134-.05.463.463,0,0,1,.261.111.556.556,0,0,1,.142.378,2.207,2.207,0,0,1-.05.278,2.688,2.688,0,0,1-.952,1.182,2.362,2.362,0,0,1-1.336.406,3.453,3.453,0,0,1-2.5-.711,2.662,2.662,0,0,1-.688-1.943V4.578H0V3.542H2.837V1.18L2.187.53V0H4.072L4.78.366V3.542l7.334-.022.73.733-4.5,4.519A3.022,3.022,0,0,1,9.2,8.566a3.681,3.681,0,0,1,1.644.469A3.376,3.376,0,0,1,12.256,10.3a4.458,4.458,0,0,1,.638,1.524,6.42,6.42,0,0,1,.153,1.3,5.458,5.458,0,0,1-.555,2.418,3.546,3.546,0,0,1-1.666,1.666,5.39,5.39,0,0,1-2.4.555Z" transform="translate(0)"/></g></g></g></svg>