<svg xmlns="http://www.w3.org/2000/svg" xmlns:xlink="http://www.w3.org/1999/xlink" width="285" height="71.756" viewBox="0 0 285 71.756"><defs><style>.a{fill:#00c68e;font-size:41px;font-family:Moon2.0-Regular, 'Moon 2.0';letter-spacing:0.01em;}.b{fill:#50e0b0;}.c{opacity:0.63;}.d,.f,.g{fill:url(#a);}.e{fill:url(#c);}.f{opacity:0.38;}.g{opacity:0.37;}.h{opacity:0.44;fill:url(#f);}.i{fill:#fff;}</style><linearGradient id="a" y1="0.5" x2="1" y2="0.5" gradientUnits="objectBoundingBox"><stop offset="0" stop-color="#fff" stop-opacity="0"/><stop offset="1" stop-color="#fff"/></linearGradient><linearGradient id="c" x1="0.957" y1="0.5" x2="-0.028" y2="0.5" xlink:href="#a"/><linearGradient id="f" x1="0.996" y1="0.5" x2="-0.021" y2="0.5" xlink:href="#a"/></defs><g transform="translate(-809 -5441.321)"><text class="a" transform="translate(984 5493)"><tspan x="-109.121" y="0">Tezster-Infra</tspan></text><g transform="translate(727.879 5160.807)"><g transform="translate(90.934 284.812)"><path class="b" d="M93.209,300.4l25.272-14.592L143.757,300.4v29.182l-25.275,14.593L93.209,329.583Z" transform="translate(-93.209 -285.809)"/><g class="c" transform="translate(25.274)"><path class="d" d="M124.345,314.992,149.619,300.4l-25.274-14.592Z" transform="translate(-124.345 -285.809)"/><path class="d" d="M124.345,321.762l25.274,14.59-25.274,14.593Z" transform="translate(-124.345 -292.578)"/><path class="e" d="M149.619,303.785v29.182l-25.274-14.591Z" transform="translate(-124.345 -289.193)"/></g><path class="f" d="M118.483,314.992,93.209,300.4l25.274-14.592Z" transform="translate(-93.209 -285.809)"/><path class="g" d="M118.483,321.762l-25.274,14.59,25.274,14.593Z" transform="translate(-93.209 -292.578)"/><path class="h" d="M93.209,303.785v29.182l25.274-14.591Z" transform="translate(-93.209 -289.193)"/></g><g transform="translate(81.121 280.514)"><path class="i" d="M135.91,315.371a3.337,3.337,0,0,0-3.333-3.37,3.263,3.263,0,0,0-3.244,3.37,3.44,3.44,0,0,0,2.908,3.313v6.366l-8.836,8.94c-.111.111-.093.262-.093.418v17.107a3.5,3.5,0,0,0-2.969,3.311,3.292,3.292,0,0,0,3.278,3.373,3.364,3.364,0,0,0,.5-6.684v-16.86l8.836-8.939c.111-.112.093-.263.093-.42v-6.612A3.4,3.4,0,0,0,135.91,315.371Z" transform="translate(-88.505 -286.443)"/><path class="i" d="M139.2,282.2a3.365,3.365,0,0,0-6.048,2.912l-6.917,4.253a.6.6,0,0,0-.275.358l-3.287,12.189-8.053,4.552a3.36,3.36,0,1,0,.589,1.033l8.266-4.673a.592.592,0,0,0,.281-.362l3.287-12.193,6.723-4.137A3.372,3.372,0,0,0,139.2,282.2Z" transform="translate(-86.305 -280.514)"/><path class="i" d="M119.059,320.061a3.368,3.368,0,0,0-6.074,2.858l-7.968,4.7-7.97-2.1a.588.588,0,0,0-.449.06l-9.435,4.831a3.346,3.346,0,1,0,.55,1.054l9.265-4.733,7.975,2.1a.591.591,0,0,0,.452-.06l8.181-4.826a3.37,3.37,0,0,0,5.473-3.884Z" transform="translate(-81.121 -287.643)"/></g></g></g></svg>