<svg xmlns="http://www.w3.org/2000/svg" xmlns:xlink="http://www.w3.org/1999/xlink" width="1915.5" height="1172" viewBox="0 0 1915.5 1172"><defs><style>.a{fill:#50e0b0;opacity:0.07;}.b{stroke:rgba(0,0,0,0);}.b,.c{fill:url(#a);}.d{fill:none;}.e,.f{stroke:none;}.f{fill:#ffaa98;}</style><linearGradient id="a" x1="0.893" y1="1" x2="-0.109" gradientUnits="objectBoundingBox"><stop offset="0" stop-color="#44d7b6" stop-opacity="0.231"/><stop offset="1" stop-color="#fff8e9" stop-opacity="0.2"/></linearGradient></defs><g transform="translate(204 -6367)"><rect class="a" width="1635" height="1172" transform="translate(-16 6367)"/><rect class="b" width="184" height="246" transform="translate(1435 6531)"/><rect class="b" width="184" height="245" transform="translate(1527 6396)"/><g transform="translate(-204 7210.556)"><rect class="c" width="246" height="245" transform="translate(130 83.444)"/><rect class="c" width="246" height="245" transform="translate(0 0.444)"/></g><g class="d" transform="translate(451.992 7027.8) rotate(-13)"><path class="e" d="M12.772,4.345a3,3,0,0,1,5.159,0L28.014,21.326a3,3,0,0,1-2.58,4.532H5.27a3,3,0,0,1-2.58-4.532Z"/><path class="f" d="M 15.35207271575928 5.876310348510742 L 15.35208225250244 5.876319885253906 L 5.270101547241211 22.85715866088867 L 25.43406295776367 22.85715866088867 L 15.35207271575928 5.876310348510742 M 15.35208225250244 2.876317977905273 C 16.35126113891602 2.876317977905273 17.35044097900391 3.365795135498047 17.93167114257813 4.344749450683594 L 28.01365280151367 21.32559013366699 C 29.20097160339355 23.32535934448242 27.75975227355957 25.8571605682373 25.43406295776367 25.8571605682373 L 5.270101547241211 25.8571605682373 C 2.944412231445313 25.8571605682373 1.503192901611328 23.32535934448242 2.690511703491211 21.32559013366699 L 12.77249145507813 4.344749450683594 C 13.35372161865234 3.365795135498047 14.35290145874023 2.876317977905273 15.35208225250244 2.876317977905273 Z"/></g><g class="d" transform="translate(451.992 7324.8) rotate(-13)"><path class="e" d="M12.772,4.345a3,3,0,0,1,5.159,0L28.014,21.326a3,3,0,0,1-2.58,4.532H5.27a3,3,0,0,1-2.58-4.532Z"/><path class="f" d="M 15.35207271575928 5.876310348510742 L 15.35208225250244 5.876319885253906 L 5.270101547241211 22.85715866088867 L 25.43406295776367 22.85715866088867 L 15.35207271575928 5.876310348510742 M 15.35208225250244 2.876317977905273 C 16.35126113891602 2.876317977905273 17.35044097900391 3.365795135498047 17.93167114257813 4.344749450683594 L 28.01365280151367 21.32559013366699 C 29.20097160339355 23.32535934448242 27.75975227355957 25.8571605682373 25.43406295776367 25.8571605682373 L 5.270101547241211 25.8571605682373 C 2.944412231445313 25.8571605682373 1.503192901611328 23.32535934448242 2.690511703491211 21.32559013366699 L 12.77249145507813 4.344749450683594 C 13.35372161865234 3.365795135498047 14.35290145874023 2.876317977905273 15.35208225250244 2.876317977905273 Z"/></g></g></svg>