<svg xmlns="http://www.w3.org/2000/svg" width="252.004" height="53.599" viewBox="0 0 252.004 53.599"><defs><style>.a{fill:#00c68e;font-size:41px;font-family:Moon2.0-Regular, 'Moon 2.0';letter-spacing:0.01em;}.b{fill:#50e0b0;fill-rule:evenodd;}</style></defs><g transform="translate(-799.996 -3652)"><text class="a" transform="translate(953 3696)"><tspan x="-98.666" y="0">Tezster-CLI</tspan></text><g transform="translate(4639.1 4375.797) rotate(180)"><path class="b" d="M3817.936,796.38l-3.84,2.217,3.841,2.218,3.84-2.217Zm-17.328-32.82h1.968V759.71h-5.815v28.877l13.005,7.509,5.813-3.357-3.833-2.213-1.972,1.139-9.168-5.292Zm21.6-6.248h4.9v24.351l-6.81,3.93,3.835,2.213,6.807-3.933c0-7.218,0-23.193,0-30.409h-8.728Zm3.89,34.355-17.32-10V757.312h4.877v-3.849h-8.73c0,7.214.007,23.189.007,30.41l21.175,12.223,13-7.5V759.71h-5.815v3.849h1.983v22.812Z" transform="translate(0 -77.018)"/><path class="b" d="M4055.211,705.909l1.924-1.111V670.2h-3.849v34.6Z" transform="translate(-237.279 0)"/></g></g></svg>