<svg xmlns="http://www.w3.org/2000/svg" width="52.422" height="71.382" viewBox="0 0 52.422 71.382"><defs><style>.a{opacity:0.15;}.b{fill:#1565d8;}</style></defs><g class="a" transform="translate(-879.25 -1160.243)"><path class="b" d="M33.862,71.382q-7.64,0-11.154-3.681a11.364,11.364,0,0,1-3.5-7.931,5.26,5.26,0,0,1,.613-2.621,4.535,4.535,0,0,1,1.673-1.674,5.835,5.835,0,0,1,5.209,0,4.461,4.461,0,0,1,1.663,1.674A5.153,5.153,0,0,1,29,59.77a5.007,5.007,0,0,1-.892,3.067,4.157,4.157,0,0,1-2.12,1.551,5.789,5.789,0,0,0,3.346,2.086,16.58,16.58,0,0,0,4.562.658,10.168,10.168,0,0,0,5.744-1.718,10.037,10.037,0,0,0,3.747-5.075,22.046,22.046,0,0,0,1.227-7.6,20.84,20.84,0,0,0-1.338-7.9,9.748,9.748,0,0,0-3.87-4.908,10.292,10.292,0,0,0-5.576-1.595A10.609,10.609,0,0,0,29,39.985l-3.581,1.8v-1.8L41.513,18.394H19.206V40.8a8.016,8.016,0,0,0,1.227,4.584,4.227,4.227,0,0,0,3.747,1.8,6.267,6.267,0,0,0,3.7-1.3,13.37,13.37,0,0,0,3.1-3.19,1.114,1.114,0,0,1,.4-.535.825.825,0,0,1,.538-.2,1.862,1.862,0,0,1,1.049.446,2.232,2.232,0,0,1,.569,1.517,8.867,8.867,0,0,1-.2,1.115,10.8,10.8,0,0,1-3.826,4.75,9.49,9.49,0,0,1-5.366,1.63q-7.244,0-10.037-2.855a10.7,10.7,0,0,1-2.766-7.808V18.394H0V14.231H11.4V4.74L8.789,2.128V0h7.573l2.845,1.472V14.231l29.467-.09,2.934,2.944L33.538,35.243a12.144,12.144,0,0,1,3.413-.825,14.792,14.792,0,0,1,6.6,1.885,13.564,13.564,0,0,1,5.689,5.076A17.914,17.914,0,0,1,51.809,47.5a25.794,25.794,0,0,1,.613,5.243,21.929,21.929,0,0,1-2.231,9.714A14.246,14.246,0,0,1,43.5,69.151a21.655,21.655,0,0,1-9.638,2.23Z" transform="translate(879.25 1160.243)"/></g></svg>