<svg xmlns="http://www.w3.org/2000/svg" xmlns:xlink="http://www.w3.org/1999/xlink" width="719.658" height="460.404" viewBox="0 0 719.658 460.404"><defs><style>.a,.q{fill:none;}.b{clip-path:url(#a);}.c{fill:url(#b);}.d,.m,.o{opacity:0.398;}.d,.u{fill:url(#c);}.e{clip-path:url(#d);}.f{fill:url(#e);}.g{clip-path:url(#f);}.h{fill:url(#g);}.i{clip-path:url(#h);}.j{fill:url(#i);}.k{clip-path:url(#q);}.l{fill:#50e0b0;}.m{fill:url(#r);}.n{clip-path:url(#s);}.o{fill:url(#t);}.p{clip-path:url(#u);}.q{stroke:#40ab90;stroke-linecap:round;stroke-miterlimit:10;}.r{clip-path:url(#v);}.s{clip-path:url(#x);}.t{clip-path:url(#z);}.u{opacity:0.401;}.v{clip-path:url(#bb);}</style><clipPath id="a"><path class="a" d="M172.317,0h0L138.626,19.542,172.1,39.081l33.693-19.539L172.318,0ZM35.258,0h0L1.566,19.54l33.473,19.54L68.733,19.54,35.258,0ZM652.034,0h0l-33.693,19.54,33.475,19.54,33.692-19.54L652.034,0ZM103.788,0h0L70.1,19.54,103.57,39.077l33.687-19.535L103.789,0Zm205.6,0h0L275.69,19.545l33.47,19.537,33.692-19.54L309.384,0ZM240.848,0h0L207.16,19.542l33.47,19.535,33.686-19.535L240.849,0ZM583.5.006h0L549.818,19.544l33.467,19.536,33.687-19.536L583.505.007Zm-68.537,0h0L481.281,19.542l33.474,19.54,33.687-19.536L514.968.007Zm-68.524,0h0L412.752,19.545,446.22,39.082l33.692-19.54L446.444.007Zm-68.535,0h0L344.221,19.542,377.7,39.082l33.686-19.537L377.908.007ZM686.191,19.941h0L652.5,39.481l33.468,19.537,33.692-19.54L686.191,19.941ZM103.565,39.874h0L69.872,59.414l33.473,19.54,33.694-19.54-33.473-19.54Zm137.066,0h0L206.938,59.419l33.468,19.535L274.1,59.416,240.631,39.877Zm-68.537,0h0L138.408,59.414l33.467,19.537,33.687-19.535L172.094,39.877Zm-137.06,0h0L1.349,59.414,34.815,78.95,68.5,59.414,35.034,39.877Zm548.239,0h0L549.588,59.416l33.474,19.54,33.686-19.537-33.474-19.54Zm-68.523,0h0l-33.694,19.54,33.468,19.537,33.693-19.54L514.751,39.879Zm-137.06,0h0L344,59.419l33.468,19.537,33.692-19.54L377.691,39.879Zm274.12,0h0L618.123,59.416l33.468,19.537,33.687-19.537L651.811,39.88ZM69.184,59.813h0L35.5,79.349,68.972,98.887l33.687-19.535L69.185,59.813ZM308.938,79.75h0L275.245,99.292l33.468,19.536L342.4,99.289,308.938,79.751Zm-68.537,0h0L206.715,99.288l33.474,19.54,33.686-19.536L240.4,79.751Zm-68.523,0h0L138.185,99.292l33.468,19.536,33.692-19.54L171.878,79.751Zm-68.537,0h0L69.656,99.288l33.467,19.536,33.687-19.536L103.341,79.751Zm-68.535,0h0L1.119,99.286l33.474,19.54L68.279,99.291,34.806,79.751Zm479.715,0h0L480.834,99.289l33.474,19.54L548,99.292l-33.474-19.54Zm-68.523,0h0L412.3,99.292l33.468,19.536,33.694-19.539L446,79.752Zm-68.537,0h0L343.774,99.289l33.476,19.539,33.686-19.536-33.474-19.54ZM617.206,99.688h0l-33.692,19.539,33.474,19.54,33.692-19.54L617.206,99.688Zm-548.245,0h0L35.275,119.225l33.467,19.535,33.687-19.535L68.961,99.688ZM34.588,119.622h0L.895,139.163,34.363,158.7l33.692-19.54L34.588,119.623Zm411.179,0h0l-33.686,19.537,33.473,19.54,33.687-19.535-33.474-19.542Zm-68.523,0h0l-33.693,19.542L377.018,158.7l33.694-19.539-33.467-19.539Zm-68.537,0h0l-33.687,19.537L308.5,158.7l33.686-19.535-33.473-19.542Zm-68.524,0h0l-33.693,19.54L239.958,158.7l33.693-19.54-33.468-19.537Zm-68.535,0h0L137.961,139.16,171.435,158.7l33.687-19.537-33.474-19.54Zm411.179,0h0L549.14,139.163,582.615,158.7,616.3,139.166l-33.474-19.54Zm-68.524,0h0l-33.692,19.54L514.08,158.7l33.693-19.539L514.3,119.626Zm-411.184,0h0L69.43,139.164,102.9,158.7l33.687-19.535-33.467-19.537ZM548.453,139.56h0L514.762,159.1l33.473,19.539L581.928,159.1l-33.475-19.54Zm-137.06,0h0L377.7,159.1l33.474,19.54L444.868,159.1l-33.474-19.54Zm-137.06,0h0L240.64,159.1l33.474,19.54,33.694-19.54L274.334,139.56Zm-68.529,0h0L172.118,159.1l33.467,19.535L239.273,159.1,205.8,139.562Zm-68.537,0h0L103.581,159.1l33.475,19.539L170.742,159.1l-33.474-19.54Zm-68.523,0h0L35.052,159.1,68.52,178.637,102.212,159.1,68.745,139.562Zm411.18,0h0L446.237,159.1,479.7,178.636,513.391,159.1l-33.467-19.537Zm-137.061,0h0L309.177,159.1l33.467,19.537L376.333,159.1l-33.47-19.537ZM102.893,159.5h0L69.2,179.036l33.473,19.54,33.693-19.54L102.894,159.5Zm479.716,0h0l-33.693,19.54,33.468,19.537,33.693-19.539L582.61,159.5Zm-68.537,0h0l-33.686,19.537,33.475,19.54,33.686-19.537L514.073,159.5Zm-68.523,0h0l-33.692,19.54,33.467,19.537,33.694-19.54L445.55,159.5Zm-68.537,0h0l-33.686,19.535L376.8,198.575l33.686-19.537L377.013,159.5Zm-68.523,0h0L274.8,179.038l33.468,19.537,33.692-19.54L308.491,159.5Zm-68.535,0h0l-33.687,19.535,33.474,19.54,33.686-19.535L239.955,159.5Zm-68.531,0h0l-33.686,19.537,33.467,19.537,33.687-19.535L171.425,159.5Zm-137.06,0h0L.677,179.036l33.468,19.535,33.687-19.535L34.365,159.5ZM479.7,179.432h0l-33.693,19.54,33.474,19.54,33.693-19.54L479.7,179.432Zm-137.06,0h0l-33.694,19.539,33.473,19.542,33.7-19.54-33.474-19.54Zm68.529,0h0l-33.686,19.537,33.467,19.535,33.689-19.535-33.47-19.537Zm-137.058,0h0l-33.687,19.535,33.468,19.537,33.686-19.535-33.467-19.537Zm-68.537,0h0l-33.687,19.535,33.474,19.54,33.687-19.535-33.474-19.54Zm-68.524,0h0l-33.692,19.539,33.467,19.537,33.693-19.54L137.05,179.435Zm-68.535,0h0L34.828,198.971,68.3,218.509l33.687-19.535L68.515,179.435Zm479.715,0h0l-33.686,19.535,33.468,19.537L581.7,198.974l-33.47-19.537ZM34.141,199.368h0L.447,218.91l33.474,19.539L67.614,218.91,34.141,199.368Zm274.12,0h0l-33.687,19.537,33.474,19.54,33.687-19.535L308.261,199.37Zm-137.06,0h0l-33.693,19.54,33.474,19.54,33.693-19.54L171.2,199.37Zm342.657,0h0l-33.693,19.54,33.467,19.537,33.695-19.54-33.468-19.537Zm-68.535,0h0l-33.689,19.536,33.474,19.542,33.687-19.537-33.473-19.54Zm-68.524,0h0L343.1,218.912l33.468,19.535,33.694-19.54L376.8,199.371Zm-137.066,0h0L206.044,218.91l33.468,19.537L273.2,218.91l-33.468-19.537Zm-137.06,0h0L68.984,218.91l33.467,19.535L136.14,218.91l-33.468-19.537Zm479.716,0h0L548.7,218.912l33.47,19.537,33.686-19.537-33.467-19.537Zm-171.44,19.931h0l-33.694,19.539,33.473,19.54,33.694-19.539-33.473-19.54Zm-342.65,0h0l-33.692,19.54,33.467,19.535,33.693-19.539L68.3,219.307Zm411.179,0h0L445.79,238.846l33.468,19.537,33.687-19.537-33.468-19.537Zm-137.06,0h0L308.73,238.844,342.2,258.382l33.687-19.537-33.468-19.535Zm-68.537,0h0l-33.686,19.535,33.474,19.54,33.686-19.535-33.474-19.54Zm-68.523,0h0l-33.693,19.539,33.47,19.537,33.692-19.54-33.468-19.535Zm-68.535,0h0l-33.689,19.535,33.476,19.539,33.686-19.535-33.473-19.539Zm411.19,0h0l-33.692,19.54,33.467,19.535,33.693-19.54-33.468-19.535ZM33.918,239.245h0L.232,258.784,33.7,278.319l33.686-19.535L33.919,239.245Zm34.149,19.936h0L34.382,278.716l33.473,19.54,33.687-19.535-33.474-19.54Zm411.192,0h0l-33.692,19.54,33.467,19.536,33.693-19.54L479.26,259.183Zm-68.535,0h0l-33.687,19.535,33.468,19.537,33.687-19.537-33.468-19.535Zm-137.06,0h0l-33.693,19.539,33.468,19.535,33.694-19.539-33.468-19.535Zm-68.535,0h0l-33.687,19.535,33.473,19.539L238.6,278.721l-33.473-19.539ZM33.693,279.115h0L0,298.656,33.475,318.2l33.693-19.54-33.475-19.54Zm239.741,19.939h0l-33.687,19.537,33.474,19.539,33.686-19.535-33.473-19.54Zm-68.524,0h0l-33.692,19.54,33.467,19.535,33.694-19.539L204.91,299.055Zm-68.535,0h0L102.687,318.59l33.474,19.54,33.686-19.535-33.473-19.54Zm479.716,0h0L582.4,318.592l33.474,19.54L649.564,318.6l-33.473-19.54Zm-68.524,0h0L513.873,318.6l33.468,19.535,33.693-19.54-33.468-19.535Zm-68.535,0h0l-33.687,19.535,33.473,19.54L512.5,318.6l-33.473-19.54Zm-137.061,0h0l-33.693,19.539,33.47,19.535,33.692-19.539L341.97,299.056Zm68.531,0h0l-33.687,19.535,33.468,19.537,33.687-19.537L410.5,299.059Z"/></clipPath><linearGradient id="b" x1="0.5" y1="0.182" x2="0.5" y2="1.471" gradientUnits="objectBoundingBox"><stop offset="0" stop-color="#fff"/><stop offset="1" stop-color="gray"/></linearGradient><radialGradient id="c" cx="0.5" cy="0.5" r="2.261" gradientTransform="translate(0.357 0) scale(0.286 1)" gradientUnits="objectBoundingBox"><stop offset="0"/><stop offset="1" stop-color="#d2d2d2"/></radialGradient><clipPath id="d"><path class="a" d="M.119,20.551,0,61.45,36.674,40.9,36.793,0Z"/></clipPath><linearGradient id="e" x1="0.868" y1="0.138" x2="-0.575" y2="1.559" gradientUnits="objectBoundingBox"><stop offset="0" stop-color="#d4dbff"/><stop offset="1" stop-color="#977bcc"/></linearGradient><clipPath id="f"><path class="a" d="M0,40.9,36.338,61.45l.118-40.9L.119,0Z"/></clipPath><linearGradient id="g" x1="0.5" y1="0.18" x2="0.5" y2="2.026" gradientUnits="objectBoundingBox"><stop offset="0" stop-color="#acb8ff"/><stop offset="1" stop-color="#662aa1"/></linearGradient><clipPath id="h"><path class="a" d="M36.1,0,0,20.191l36.337,20.19,36.1-20.19Z"/></clipPath><linearGradient id="i" x1="0.772" y1="0.215" x2="-0.02" y2="1.045" gradientUnits="objectBoundingBox"><stop offset="0" stop-color="#e6ebff"/><stop offset="1" stop-color="#aca1db"/></linearGradient><clipPath id="q"><path class="a" d="M12.168,0A12.157,12.157,0,0,0,0,12.17H0A12.165,12.165,0,0,0,12.168,24.338h0A12.175,12.175,0,0,0,24.338,12.17h0A12.166,12.166,0,0,0,12.168,0Z" transform="translate(0 0)"/></clipPath><radialGradient id="r" r="2.261" xlink:href="#c"/><clipPath id="s"><path class="a" d="M16.514,0A16.5,16.5,0,0,0,0,16.516H0A16.51,16.51,0,0,0,16.514,33.03h0A16.523,16.523,0,0,0,33.03,16.516h0A16.511,16.511,0,0,0,16.514,0Z"/></clipPath><radialGradient id="t" r="2.261" xlink:href="#c"/><clipPath id="u"><path class="a" d="M10.43,0A10.42,10.42,0,0,0,0,10.431H0a10.427,10.427,0,0,0,10.43,10.43h0a10.435,10.435,0,0,0,10.431-10.43h0A10.428,10.428,0,0,0,10.43,0Z"/></clipPath><clipPath id="v"><path class="a" d="M.113,20.909,0,62.522l34.713-20.91L34.825,0Z"/></clipPath><clipPath id="x"><path class="a" d="M0,42.036,36.338,63.157l.118-42.036L.119,0Z"/></clipPath><clipPath id="z"><path class="a" d="M35.241,0,0,21.033,35.472,42.064,70.713,21.033Z"/></clipPath><clipPath id="bb"><path class="a" d="M12.168,0A12.157,12.157,0,0,0,0,12.17H0A12.165,12.165,0,0,0,12.168,24.338h0A12.175,12.175,0,0,0,24.338,12.17h0A12.166,12.166,0,0,0,12.168,0Z" transform="translate(0)"/></clipPath></defs><g transform="translate(0)"><g transform="translate(0 80.092)"><path class="a" d="M172.317,0h0L138.626,19.542,172.1,39.081l33.693-19.539L172.318,0ZM35.258,0h0L1.566,19.54l33.473,19.54L68.733,19.54,35.258,0ZM652.034,0h0l-33.693,19.54,33.475,19.54,33.692-19.54L652.034,0ZM103.788,0h0L70.1,19.54,103.57,39.077l33.687-19.535L103.789,0Zm205.6,0h0L275.69,19.545l33.47,19.537,33.692-19.54L309.384,0ZM240.848,0h0L207.16,19.542l33.47,19.535,33.686-19.535L240.849,0ZM583.5.006h0L549.818,19.544l33.467,19.536,33.687-19.536L583.505.007Zm-68.537,0h0L481.281,19.542l33.474,19.54,33.687-19.536L514.968.007Zm-68.524,0h0L412.752,19.545,446.22,39.082l33.692-19.54L446.444.007Zm-68.535,0h0L344.221,19.542,377.7,39.082l33.686-19.537L377.908.007ZM686.191,19.941h0L652.5,39.481l33.468,19.537,33.692-19.54L686.191,19.941ZM103.565,39.874h0L69.872,59.414l33.473,19.54,33.694-19.54-33.473-19.54Zm137.066,0h0L206.938,59.419l33.468,19.535L274.1,59.416,240.631,39.877Zm-68.537,0h0L138.408,59.414l33.467,19.537,33.687-19.535L172.094,39.877Zm-137.06,0h0L1.349,59.414,34.815,78.95,68.5,59.414,35.034,39.877Zm548.239,0h0L549.588,59.416l33.474,19.54,33.686-19.537-33.474-19.54Zm-68.523,0h0l-33.694,19.54,33.468,19.537,33.693-19.54L514.751,39.879Zm-137.06,0h0L344,59.419l33.468,19.537,33.692-19.54L377.691,39.879Zm274.12,0h0L618.123,59.416l33.468,19.537,33.687-19.537L651.811,39.88ZM69.184,59.813h0L35.5,79.349,68.972,98.887l33.687-19.535L69.185,59.813ZM308.938,79.75h0L275.245,99.292l33.468,19.536L342.4,99.289,308.938,79.751Zm-68.537,0h0L206.715,99.288l33.474,19.54,33.686-19.536L240.4,79.751Zm-68.523,0h0L138.185,99.292l33.468,19.536,33.692-19.54L171.878,79.751Zm-68.537,0h0L69.656,99.288l33.467,19.536,33.687-19.536L103.341,79.751Zm-68.535,0h0L1.119,99.286l33.474,19.54L68.279,99.291,34.806,79.751Zm479.715,0h0L480.834,99.289l33.474,19.54L548,99.292l-33.474-19.54Zm-68.523,0h0L412.3,99.292l33.468,19.536,33.694-19.539L446,79.752Zm-68.537,0h0L343.774,99.289l33.476,19.539,33.686-19.536-33.474-19.54ZM617.206,99.688h0l-33.692,19.539,33.474,19.54,33.692-19.54L617.206,99.688Zm-548.245,0h0L35.275,119.225l33.467,19.535,33.687-19.535L68.961,99.688ZM34.588,119.622h0L.895,139.163,34.363,158.7l33.692-19.54L34.588,119.623Zm411.179,0h0l-33.686,19.537,33.473,19.54,33.687-19.535-33.474-19.542Zm-68.523,0h0l-33.693,19.542L377.018,158.7l33.694-19.539-33.467-19.539Zm-68.537,0h0l-33.687,19.537L308.5,158.7l33.686-19.535-33.473-19.542Zm-68.524,0h0l-33.693,19.54L239.958,158.7l33.693-19.54-33.468-19.537Zm-68.535,0h0L137.961,139.16,171.435,158.7l33.687-19.537-33.474-19.54Zm411.179,0h0L549.14,139.163,582.615,158.7,616.3,139.166l-33.474-19.54Zm-68.524,0h0l-33.692,19.54L514.08,158.7l33.693-19.539L514.3,119.626Zm-411.184,0h0L69.43,139.164,102.9,158.7l33.687-19.535-33.467-19.537ZM548.453,139.56h0L514.762,159.1l33.473,19.539L581.928,159.1l-33.475-19.54Zm-137.06,0h0L377.7,159.1l33.474,19.54L444.868,159.1l-33.474-19.54Zm-137.06,0h0L240.64,159.1l33.474,19.54,33.694-19.54L274.334,139.56Zm-68.529,0h0L172.118,159.1l33.467,19.535L239.273,159.1,205.8,139.562Zm-68.537,0h0L103.581,159.1l33.475,19.539L170.742,159.1l-33.474-19.54Zm-68.523,0h0L35.052,159.1,68.52,178.637,102.212,159.1,68.745,139.562Zm411.18,0h0L446.237,159.1,479.7,178.636,513.391,159.1l-33.467-19.537Zm-137.061,0h0L309.177,159.1l33.467,19.537L376.333,159.1l-33.47-19.537ZM102.893,159.5h0L69.2,179.036l33.473,19.54,33.693-19.54L102.894,159.5Zm479.716,0h0l-33.693,19.54,33.468,19.537,33.693-19.539L582.61,159.5Zm-68.537,0h0l-33.686,19.537,33.475,19.54,33.686-19.537L514.073,159.5Zm-68.523,0h0l-33.692,19.54,33.467,19.537,33.694-19.54L445.55,159.5Zm-68.537,0h0l-33.686,19.535L376.8,198.575l33.686-19.537L377.013,159.5Zm-68.523,0h0L274.8,179.038l33.468,19.537,33.692-19.54L308.491,159.5Zm-68.535,0h0l-33.687,19.535,33.474,19.54,33.686-19.535L239.955,159.5Zm-68.531,0h0l-33.686,19.537,33.467,19.537,33.687-19.535L171.425,159.5Zm-137.06,0h0L.677,179.036l33.468,19.535,33.687-19.535L34.365,159.5ZM479.7,179.432h0l-33.693,19.54,33.474,19.54,33.693-19.54L479.7,179.432Zm-137.06,0h0l-33.694,19.539,33.473,19.542,33.7-19.54-33.474-19.54Zm68.529,0h0l-33.686,19.537,33.467,19.535,33.689-19.535-33.47-19.537Zm-137.058,0h0l-33.687,19.535,33.468,19.537,33.686-19.535-33.467-19.537Zm-68.537,0h0l-33.687,19.535,33.474,19.54,33.687-19.535-33.474-19.54Zm-68.524,0h0l-33.692,19.539,33.467,19.537,33.693-19.54L137.05,179.435Zm-68.535,0h0L34.828,198.971,68.3,218.509l33.687-19.535L68.515,179.435Zm479.715,0h0l-33.686,19.535,33.468,19.537L581.7,198.974l-33.47-19.537ZM34.141,199.368h0L.447,218.91l33.474,19.539L67.614,218.91,34.141,199.368Zm274.12,0h0l-33.687,19.537,33.474,19.54,33.687-19.535L308.261,199.37Zm-137.06,0h0l-33.693,19.54,33.474,19.54,33.693-19.54L171.2,199.37Zm342.657,0h0l-33.693,19.54,33.467,19.537,33.695-19.54-33.468-19.537Zm-68.535,0h0l-33.689,19.536,33.474,19.542,33.687-19.537-33.473-19.54Zm-68.524,0h0L343.1,218.912l33.468,19.535,33.694-19.54L376.8,199.371Zm-137.066,0h0L206.044,218.91l33.468,19.537L273.2,218.91l-33.468-19.537Zm-137.06,0h0L68.984,218.91l33.467,19.535L136.14,218.91l-33.468-19.537Zm479.716,0h0L548.7,218.912l33.47,19.537,33.686-19.537-33.467-19.537Zm-171.44,19.931h0l-33.694,19.539,33.473,19.54,33.694-19.539-33.473-19.54Zm-342.65,0h0l-33.692,19.54,33.467,19.535,33.693-19.539L68.3,219.307Zm411.179,0h0L445.79,238.846l33.468,19.537,33.687-19.537-33.468-19.537Zm-137.06,0h0L308.73,238.844,342.2,258.382l33.687-19.537-33.468-19.535Zm-68.537,0h0l-33.686,19.535,33.474,19.54,33.686-19.535-33.474-19.54Zm-68.523,0h0l-33.693,19.539,33.47,19.537,33.692-19.54-33.468-19.535Zm-68.535,0h0l-33.689,19.535,33.476,19.539,33.686-19.535-33.473-19.539Zm411.19,0h0l-33.692,19.54,33.467,19.535,33.693-19.54-33.468-19.535ZM33.918,239.245h0L.232,258.784,33.7,278.319l33.686-19.535L33.919,239.245Zm34.149,19.936h0L34.382,278.716l33.473,19.54,33.687-19.535-33.474-19.54Zm411.192,0h0l-33.692,19.54,33.467,19.536,33.693-19.54L479.26,259.183Zm-68.535,0h0l-33.687,19.535,33.468,19.537,33.687-19.537-33.468-19.535Zm-137.06,0h0l-33.693,19.539,33.468,19.535,33.694-19.539-33.468-19.535Zm-68.535,0h0l-33.687,19.535,33.473,19.539L238.6,278.721l-33.473-19.539ZM33.693,279.115h0L0,298.656,33.475,318.2l33.693-19.54-33.475-19.54Zm239.741,19.939h0l-33.687,19.537,33.474,19.539,33.686-19.535-33.473-19.54Zm-68.524,0h0l-33.692,19.54,33.467,19.535,33.694-19.539L204.91,299.055Zm-68.535,0h0L102.687,318.59l33.474,19.54,33.686-19.535-33.473-19.54Zm479.716,0h0L582.4,318.592l33.474,19.54L649.564,318.6l-33.473-19.54Zm-68.524,0h0L513.873,318.6l33.468,19.535,33.693-19.54-33.468-19.535Zm-68.535,0h0l-33.687,19.535,33.473,19.54L512.5,318.6l-33.473-19.54Zm-137.061,0h0l-33.693,19.539,33.47,19.535,33.692-19.539L341.97,299.056Zm68.531,0h0l-33.687,19.535,33.468,19.537,33.687-19.537L410.5,299.059Z" transform="translate(0 0)"/><g class="b" transform="translate(0 0)"><path class="c" d="M714.15,0h-.007l-1.368,0L697.512,8.854,682.35,0h-1.367l15.845,9.25L663.14,28.789,629.665,9.248,645.608,0H644.24L628.983,8.851,613.827,0h-1.369L628.3,9.248,594.6,28.789,561.136,9.252,577.084,0h-1.371L560.452,8.854,545.292,0h-1.369l15.843,9.248L526.08,28.789,492.606,9.248,508.547,0h-1.369L491.923,8.851,476.769,0h-1.382L491.23,9.252,457.545,28.789,424.075,9.252,440.023,0h-1.38L423.388,8.85,408.233,0h-1.369L422.7,9.248,389.008,28.787,355.539,9.252,371.487,0h-1.371L354.857,8.854,339.7,0h-1.369L354.17,9.252,320.483,28.787,287.01,9.248,302.949,0h-1.367L286.328,8.85,271.174,0H269.8l15.837,9.245L251.948,28.787,218.48,9.25,234.426,0h-1.369L217.8,8.853,202.638,0h-1.369L217.111,9.25,183.423,28.787,149.95,9.247,165.889,0H164.52L149.268,8.85,134.115,0h-1.371l15.837,9.244-33.694,19.54L81.42,9.25,97.363,0H95.994L80.738,8.851,65.58,0H64.209L80.051,9.25,46.364,28.787,12.891,9.245,28.828,0H27.459L0,15.928v.793L12.2,9.644,45.677,29.186,11.983,48.725,0,41.728v.8l11.3,6.595L0,55.675v.795l11.978-6.948,33.47,19.537L11.761,88.594,0,81.728v.807L11.068,89,0,95.415v.793l11.75-6.814,33.474,19.54L11.537,128.472,0,121.736v.8l10.85,6.334L0,135.162v.793l11.533-6.687L45,148.8l-33.693,19.54L0,161.743v.8l10.62,6.2L0,174.9v.795l11.3-6.556,33.474,19.54L11.09,208.218,0,201.743v.8l10.4,6.074L0,214.648v.795l11.085-6.429,33.468,19.537L10.86,248.09,0,241.75v.8l10.173,5.939L0,254.389v.8l10.863-6.3L44.33,268.428,10.642,287.963,0,281.75v.8l9.957,5.811L0,294.135v.793l10.639-6.169L44.114,308.3,10.42,327.84,0,321.758v.8l9.733,5.683L0,333.882v.795l10.415-6.041,33.468,19.537L10.2,367.709,0,361.757v.8l9.511,5.551L0,373.621v.795l10.192-5.911,33.474,19.542L9.973,407.587,0,401.764v.8l9.287,5.421L0,413.37v.795l9.968-5.781,33.468,19.535L25.9,438.089h1.367l16.849-9.771,16.74,9.771h1.369l-17.422-10.17L78.5,408.379l33.473,19.54-17.536,10.17h1.371l16.848-9.771,16.739,9.771h1.371l-17.422-10.17,33.686-19.535L180.5,427.921l-17.534,10.168h1.371l16.846-9.771,16.738,9.771h1.369l-17.42-10.168,33.693-19.54,33.473,19.54L231.5,438.089h1.371l16.847-9.771,16.737,9.771h1.371L250.4,427.921l33.686-19.537,33.468,19.537-17.533,10.168h1.38l16.841-9.766,16.73,9.766h1.371l-17.414-10.165,33.693-19.54,33.468,19.539L368.56,438.089h1.369l16.846-9.769,16.736,9.769h1.369l-17.419-10.167,33.687-19.539,33.473,19.542L437.1,438.089h1.369l16.838-9.766,16.73,9.766H473.4l-17.412-10.164,33.693-19.54,33.467,19.537L505.62,438.089h1.369l16.846-9.769,16.736,9.769h1.368l-17.417-10.167,33.687-19.537,33.473,19.54-17.525,10.164h1.369l16.838-9.766,16.73,9.766h1.382l-17.419-10.167,33.687-19.537,33.468,19.537-17.531,10.167h1.369l16.844-9.768,16.735,9.768H679l-17.417-10.167,33.693-19.54,33.474,19.54-17.531,10.167h1.369l16.844-9.768,16.733,9.768h1.369l-17.417-10.167,33.689-19.537,11.537,6.737v-.8l-10.852-6.335,10.852-6.293V400.9l-11.534,6.689L730.336,388.05l33.692-19.54,11.315,6.6v-.8l-10.628-6.2,10.628-6.163v-.793l-11.31,6.559-33.468-19.537,33.687-19.537,11.091,6.474v-.8l-10.4-6.072,10.4-6.035v-.795l-11.087,6.43L730.782,308.3l33.693-19.54,10.868,6.344v-.8l-10.181-5.942,10.181-5.9v-.795l-10.863,6.3-33.468-19.537L764.7,248.894l10.644,6.213v-.8l-9.957-5.814,9.957-5.775v-.793L764.7,248.1l-33.474-19.54,33.694-19.54,10.422,6.083v-.8l-9.735-5.683,9.735-5.645v-.793l-10.417,6.041-33.467-19.537,33.686-19.537,10.2,5.953v-.807l-9.5-5.546,9.5-5.512v-.8l-10.195,5.909-33.467-19.535,33.687-19.535,9.974,5.822v-.8l-9.287-5.421,9.287-5.385v-.795l-9.971,5.783L731.9,108.933l33.692-19.539,9.752,5.69v-.8L766.278,89l9.065-5.256v-.8L765.6,88.6,732.129,69.061l33.686-19.537,9.528,5.561v-.8l-8.84-5.16L775.343,44V43.2l-9.524,5.523L732.346,29.189,766.038,9.647l9.3,5.431v-.8L750.885,0h-1.368L765.356,9.25,731.663,28.789,698.2,9.253,714.144,0ZM217.35,88.6h0L183.877,69.06l33.692-19.542L251.044,69.06,217.35,88.6Zm-137.06,0L46.817,69.058l33.692-19.54,33.474,19.54Zm616.776,0-33.475-19.54,33.693-19.54,33.473,19.54L697.066,88.6ZM148.821,88.6,115.353,69.058,149.04,49.521,182.508,69.06Zm205.591,0-33.47-19.537,33.693-19.54L388.1,69.06,354.411,88.6Zm-68.531,0L252.411,69.06,286.1,49.523,319.566,69.06,285.881,88.6Zm342.655,0L595.069,69.061l33.687-19.537,33.467,19.537L628.536,88.6h0Zm-68.529,0h0L526.532,69.06l33.687-19.535,33.474,19.54L560.007,88.6Zm-68.535,0L458,69.063l33.692-19.539L525.163,69.06,491.471,88.6Zm-68.524,0L389.472,69.06,423.16,49.524l33.473,19.539L422.947,88.6Zm308.27,19.936h0L697.749,89l33.693-19.54L764.909,89l-33.692,19.54ZM148.6,128.472l-33.473-19.54,33.693-19.54,33.473,19.54Zm137.061,0h0l-33.468-19.535,33.693-19.542,33.468,19.539-33.693,19.539Zm-68.531,0L183.66,108.932l33.686-19.537,33.468,19.539-33.687,19.536h0Zm-137.06,0L46.6,108.932,80.285,89.395l33.468,19.537Zm548.247.006-33.474-19.54L628.525,89.4,662,108.936Zm-68.537,0h0l-33.468-19.537L560,89.4l33.468,19.537-33.693,19.54Zm-137.058,0h0L389.25,108.936,422.942,89.4l33.468,19.537-33.692,19.54Zm274.124,0-33.468-19.537L697.062,89.4l33.468,19.535L696.843,128.47ZM114.223,148.4h0L80.749,128.866l33.687-19.535,33.474,19.539L114.223,148.4Zm239.741,19.941L320.5,148.81l33.693-19.542,33.467,19.539-33.692,19.539Zm-68.523,0h0l-33.474-19.54,33.686-19.537,33.474,19.542-33.686,19.535Zm-68.537,0h0L183.436,148.81l33.693-19.542L250.6,148.805,216.9,168.345Zm-68.53,0-33.467-19.536,33.686-19.537,33.468,19.537-33.687,19.535h0Zm-68.529,0L46.37,148.8l33.687-19.535,33.473,19.54Zm479.715,0h0l-33.474-19.54,33.687-19.537,33.474,19.54-33.687,19.537Zm-68.535,0h0L457.556,148.81l33.693-19.54,33.468,19.537-33.694,19.539Zm-68.523,0-33.476-19.539,33.687-19.537,33.475,19.54L422.5,168.345ZM662.24,188.285l-33.475-19.54,33.692-19.539,33.474,19.539-33.692,19.54Zm-548.247-.006L80.526,168.743l33.686-19.537,33.468,19.537-33.687,19.535h0ZM79.614,208.218,46.146,188.68l33.693-19.54,33.467,19.537Zm411.192,0-33.473-19.54,33.686-19.537,33.474,19.542-33.687,19.535h0Zm-68.537,0L388.8,188.684,422.5,169.142l33.467,19.539Zm-68.523,0h0l-33.474-19.54,33.687-19.537,33.473,19.542-33.685,19.535Zm-68.537,0-33.468-19.537,33.694-19.54L318.9,188.679Zm-68.523,0-33.475-19.542L216.9,169.142l33.474,19.54-33.687,19.537h0Zm411.179,0L594.392,188.68l33.687-19.537,33.474,19.54-33.687,19.535h0Zm-68.535,0h0l-33.468-19.535,33.692-19.54,33.47,19.537-33.693,19.539Zm-411.181,0-33.468-19.536,33.689-19.537,33.467,19.537L148.15,208.218h0Zm445.336,19.939-33.473-19.539,33.692-19.54,33.474,19.54-33.693,19.539h0Zm-137.06,0-33.475-19.54,33.694-19.539,33.474,19.54-33.693,19.539h0Zm-137.06,0h0l-33.474-19.54,33.693-19.539,33.474,19.539-33.693,19.54Zm-68.531,0-33.467-19.536,33.687-19.537,33.468,19.537-33.689,19.535Zm-68.529,0-33.474-19.539,33.687-19.537,33.474,19.54Zm-68.535,0L80.3,208.62,114,189.079l33.467,19.537-33.692,19.539h0Zm411.184,0h0l-33.466-19.535,33.687-19.537,33.467,19.537-33.687,19.535Zm-137.06,0h0l-33.467-19.537,33.686-19.535,33.47,19.537L387.9,228.154ZM147.926,248.094l-33.473-19.54,33.692-19.54,33.474,19.54-33.693,19.54h0Zm479.71,0-33.468-19.537,33.693-19.54,33.468,19.539-33.693,19.539Zm-68.523,0h0l-33.474-19.54,33.686-19.537,33.474,19.54-33.686,19.537Zm-68.537,0h0L457.11,228.556l33.692-19.54,33.468,19.537-33.694,19.54Zm-68.523,0-33.474-19.542,33.686-19.535,33.475,19.54Zm-68.535,0L320.05,228.556l33.692-19.54,33.468,19.537-33.692,19.54Zm-68.525,0-33.474-19.54,33.687-19.535,33.473,19.54Zm-68.537,0L182.99,228.554l33.686-19.537,33.468,19.539-33.687,19.535h0Zm-137.06,0h0L45.929,228.554l33.687-19.537,33.468,19.537L79.4,248.09ZM524.733,268.03h0l-33.474-19.54,33.694-19.54,33.474,19.54-33.693,19.54Zm-137.061,0h0L354.2,248.489l33.693-19.539,33.474,19.54-33.695,19.54Zm68.531,0L422.735,248.49l33.686-19.537,33.47,19.537L456.2,268.026h0Zm-137.058,0h0l-33.468-19.537,33.687-19.536,33.467,19.537-33.686,19.535Zm-68.531,0-33.474-19.54,33.687-19.536,33.474,19.54Zm-68.537,0L148.61,248.492,182.3,228.953l33.468,19.536Zm-68.523,0h0L80.079,248.489l33.687-19.536,33.474,19.539-33.687,19.535Zm479.71,0L559.8,248.49l33.686-19.535,33.47,19.537-33.687,19.535h0ZM79.173,287.966h0L45.7,268.428l33.693-19.542,33.473,19.542L79.173,287.966Zm274.126,0h0l-33.474-19.54,33.687-19.537,33.474,19.542L353.3,287.965Zm205.583,0-33.467-19.537,33.693-19.54,33.468,19.537-33.7,19.54h0Zm-68.523,0-33.475-19.542,33.689-19.535,33.473,19.54-33.687,19.537h0Zm-68.535,0-33.468-19.536,33.694-19.54,33.468,19.535-33.694,19.54Zm-137.06,0L251.3,268.428l33.687-19.537,33.468,19.537Zm-137.061,0-33.467-19.536,33.687-19.537,33.468,19.537L147.7,287.963h0Zm479.718,0-33.47-19.537,33.689-19.537,33.466,19.537L627.42,287.966h0ZM455.979,307.9l-33.473-19.54L456.2,268.824l33.473,19.54L455.978,307.9Zm-342.655,0L79.857,288.365l33.692-19.54,33.468,19.537L113.323,307.9h0Zm411.186,0h0l-33.468-19.537,33.687-19.537L558.2,288.364,524.509,307.9Zm-137.06,0h0l-33.468-19.537,33.687-19.535,33.468,19.535L387.449,307.9Zm-68.529,0h0l-33.474-19.54,33.686-19.535,33.474,19.54L318.92,307.9Zm-137.06,0-33.476-19.539,33.689-19.535,33.473,19.539Zm411.178,0-33.467-19.536,33.692-19.54,33.468,19.535L593.038,307.9h0ZM78.951,327.837h0L45.483,308.3,79.17,288.763,112.637,308.3,78.951,327.837Zm34.155,19.938-33.473-19.54L113.319,308.7l33.474,19.54Zm411.179,0h0L490.819,328.24l33.692-19.54,33.468,19.536-33.694,19.54Zm-68.529,0-33.468-19.537L455.975,308.7l33.468,19.536-33.687,19.537h0Zm-137.066,0-33.468-19.535L318.915,308.7l33.468,19.536Zm-68.524,0-33.473-19.539L250.38,308.7l33.473,19.539-33.687,19.535ZM78.726,367.713l-33.474-19.54,33.693-19.54,33.474,19.54Zm239.747,19.934L285,368.109l33.687-19.537,33.473,19.54-33.686,19.536Zm-68.537,0-33.467-19.536,33.692-19.54,33.468,19.537-33.694,19.539Zm-68.523,0-33.474-19.54,33.687-19.535,33.473,19.54Zm479.717,0-33.475-19.54,33.687-19.535,33.473,19.54-33.686,19.535h0Zm-68.537,0-33.468-19.536,33.693-19.54,33.468,19.535-33.693,19.54h0Zm-68.524,0L490.6,368.109l33.687-19.535,33.473,19.54-33.687,19.535Zm-137.071,0-33.47-19.536,33.693-19.539,33.468,19.535L387,387.648Zm68.535,0-33.468-19.537,33.687-19.535,33.468,19.535-33.687,19.537Z" transform="translate(-45.251 -49.518)"/></g></g><g transform="translate(304.175 146)"><ellipse class="d" cx="36.507" cy="10.431" rx="36.507" ry="10.431" transform="translate(0 72.329)"/><g transform="translate(35.756 20.192)"><path class="a" d="M.119,20.551,0,61.45,36.674,40.9,36.793,0Z" transform="translate(0 0)"/><g class="e" transform="translate(0 0)"><path class="f" d="M.119,20.551,0,61.45,36.674,40.9,36.793,0Z"/></g></g><g transform="translate(0 20.192)"><path class="a" d="M0,40.9,36.338,61.45l.118-40.9L.119,0Z" transform="translate(0 0)"/><g class="g" transform="translate(0 0)"><path class="h" d="M0,40.9,36.338,61.45l.118-40.9L.119,0Z"/></g></g><g transform="translate(0.119 0)"><path class="a" d="M36.1,0,0,20.191l36.337,20.19,36.1-20.19Z"/><g class="i"><path class="j" d="M36.1,0,0,20.191l36.337,20.19,36.1-20.19Z"/></g></g></g><g transform="translate(450.203 227.706)"><ellipse class="d" cx="36.507" cy="10.431" rx="36.507" ry="10.431" transform="translate(0 72.329)"/><g transform="translate(35.756 20.192)"><path class="a" d="M.119,20.551,0,61.45,36.674,40.9,36.793,0Z" transform="translate(0 0)"/><g class="e" transform="translate(0 0)"><path class="f" d="M.119,20.551,0,61.45,36.674,40.9,36.793,0Z"/></g></g><g transform="translate(0 20.192)"><path class="a" d="M0,40.9,36.338,61.45l.118-40.9L.119,0Z" transform="translate(0 0)"/><g class="g" transform="translate(0 0)"><path class="h" d="M0,40.9,36.338,61.45l.118-40.9L.119,0Z"/></g></g><g transform="translate(0.119 0)"><path class="a" d="M36.1,0,0,20.191l36.337,20.19,36.1-20.19Z"/><g class="i"><path class="j" d="M36.1,0,0,20.191l36.337,20.19,36.1-20.19Z"/></g></g></g><g transform="translate(564.94 63.608)"><path class="a" d="M12.168,0A12.157,12.157,0,0,0,0,12.17H0A12.165,12.165,0,0,0,12.168,24.338h0A12.175,12.175,0,0,0,24.338,12.17h0A12.166,12.166,0,0,0,12.168,0Z" transform="translate(0 0)"/><g class="k" transform="translate(0 0)"><path class="l" d="M12.168,0A12.157,12.157,0,0,0,0,12.17H0A12.165,12.165,0,0,0,12.168,24.338h0A12.175,12.175,0,0,0,24.338,12.17h0A12.166,12.166,0,0,0,12.168,0Z" transform="translate(0 0)"/></g></g><g transform="translate(523.217 411.295)"><ellipse class="m" cx="16.515" cy="4.719" rx="16.515" ry="4.719" transform="translate(0 30.671)"/><path class="a" d="M16.514,0A16.5,16.5,0,0,0,0,16.516H0A16.51,16.51,0,0,0,16.514,33.03h0A16.523,16.523,0,0,0,33.03,16.516h0A16.511,16.511,0,0,0,16.514,0Z"/><g class="n"><path class="l" d="M16.514,0A16.5,16.5,0,0,0,0,16.516H0A16.51,16.51,0,0,0,16.514,33.03h0A16.523,16.523,0,0,0,33.03,16.516h0A16.511,16.511,0,0,0,16.514,0Z"/></g></g><g transform="translate(158.146 355.665)"><ellipse class="o" cx="10.431" cy="2.98" rx="10.431" ry="2.98" transform="translate(0 19.371)"/><path class="a" d="M10.43,0A10.42,10.42,0,0,0,0,10.431H0a10.427,10.427,0,0,0,10.43,10.43h0a10.435,10.435,0,0,0,10.431-10.43h0A10.428,10.428,0,0,0,10.43,0Z"/><g class="p"><path class="l" d="M10.43,0A10.42,10.42,0,0,0,0,10.431H0a10.427,10.427,0,0,0,10.43,10.43h0a10.435,10.435,0,0,0,10.431-10.43h0A10.428,10.428,0,0,0,10.43,0Z"/></g></g><path class="q" d="M1.451.332V90.743" transform="translate(340.015 76.023)"/><path class="q" d="M1.451.332V90.743" transform="translate(486.043 159.467)"/><g transform="translate(305.913 0)"><g transform="translate(35.703 21.902)"><path class="a" d="M.113,20.909,0,62.522l34.713-20.91L34.825,0Z" transform="translate(0 0)"/><g class="r" transform="translate(0 0)"><path class="f" d="M.113,20.909,0,62.522l34.713-20.91L34.825,0Z"/></g></g><g transform="translate(0 21.902)"><path class="a" d="M0,42.036,36.338,63.157l.118-42.036L.119,0Z" transform="translate(0 0)"/><g class="s" transform="translate(0 0)"><path class="h" d="M0,42.036,36.338,63.157l.118-42.036L.119,0Z"/></g></g><g transform="translate(0.116)"><path class="a" d="M35.241,0,0,21.033,35.472,42.064,70.713,21.033Z"/><g class="t"><path class="j" d="M35.241,0,0,21.033,35.472,42.064,70.713,21.033Z"/></g></g></g><path class="q" d="M120.645.011.412,68.79" transform="translate(201.911 51.447)"/><path class="q" d="M120.645.011.412,68.79" transform="translate(201.911 192.26)"/><path class="q" d="M120.645.011.412,68.79" transform="translate(347.939 279.182)"/><g transform="translate(158.146 81.706)"><g transform="translate(35.703 21.902)"><path class="a" d="M.113,20.909,0,62.522l34.713-20.91L34.825,0Z" transform="translate(0 0)"/><g class="r" transform="translate(0 0)"><path class="f" d="M.113,20.909,0,62.522l34.713-20.91L34.825,0Z"/></g></g><g transform="translate(0 21.902)"><path class="a" d="M0,42.036,36.338,63.157l.118-42.036L.119,0Z" transform="translate(0 0)"/><g class="s" transform="translate(0 0)"><path class="h" d="M0,42.036,36.338,63.157l.118-42.036L.119,0Z"/></g></g><g transform="translate(0.116 0)"><path class="a" d="M35.241,0,0,21.033,35.472,42.064,70.713,21.033Z"/><g class="t"><path class="j" d="M35.241,0,0,21.033,35.472,42.064,70.713,21.033Z"/></g></g></g><path class="q" d="M63.2.01.5,35.351" transform="translate(118.531 131.415)"/><path class="q" d="M61.345,0,.5,35.359" transform="translate(514.894 75.777)"/><g transform="translate(158.146 225.968)"><ellipse class="d" cx="36.507" cy="10.431" rx="36.507" ry="10.431" transform="translate(0 72.329)"/><g transform="translate(35.756 20.192)"><path class="a" d="M.119,20.551,0,61.45,36.674,40.9,36.793,0Z" transform="translate(0 0)"/><g class="e" transform="translate(0 0)"><path class="f" d="M.119,20.551,0,61.45,36.674,40.9,36.793,0Z"/></g></g><g transform="translate(0 20.192)"><path class="a" d="M0,40.9,36.338,61.45l.118-40.9L.119,0Z" transform="translate(0 0)"/><g class="g" transform="translate(0 0)"><path class="h" d="M0,40.9,36.338,61.45l.118-40.9L.119,0Z"/></g></g><g transform="translate(0.119 0)"><path class="a" d="M36.1,0,0,20.191l36.337,20.19,36.1-20.19Z"/><g class="i"><path class="j" d="M36.1,0,0,20.191l36.337,20.19,36.1-20.19Z"/></g></g></g><g transform="translate(451.942 81.706)"><g transform="translate(35.703 21.902)"><path class="a" d="M.113,20.909,0,62.522l34.713-20.91L34.825,0Z" transform="translate(0 0)"/><g class="r" transform="translate(0 0)"><path class="f" d="M.113,20.909,0,62.522l34.713-20.91L34.825,0Z"/></g></g><g transform="translate(0 21.902)"><path class="a" d="M0,42.036,36.338,63.157l.118-42.036L.119,0Z" transform="translate(0 0)"/><g class="s" transform="translate(0 0)"><path class="h" d="M0,42.036,36.338,63.157l.118-42.036L.119,0Z"/></g></g><g transform="translate(0.116 0)"><path class="a" d="M35.241,0,0,21.033,35.472,42.064,70.713,21.033Z"/><g class="t"><path class="j" d="M35.241,0,0,21.033,35.472,42.064,70.713,21.033Z"/></g></g></g><path class="q" d="M-68.574.011,49.768,70.4" transform="translate(281.352 277.444)"/><g transform="translate(304.175 309.413)"><ellipse class="u" cx="36.507" cy="10.431" rx="36.507" ry="10.431" transform="translate(0 72.329)"/><g transform="translate(35.756 20.192)"><path class="a" d="M.119,20.551,0,61.45,36.674,40.9,36.793,0Z" transform="translate(0 0)"/><g class="e" transform="translate(0 0)"><path class="f" d="M.119,20.551,0,61.45,36.674,40.9,36.793,0Z"/></g></g><g transform="translate(0 20.192)"><path class="a" d="M0,40.9,36.338,61.45l.118-40.9L.119,0Z" transform="translate(0 0)"/><g class="g" transform="translate(0 0)"><path class="h" d="M0,40.9,36.338,61.45l.118-40.9L.119,0Z"/></g></g><g transform="translate(0.119 0)"><path class="a" d="M36.1,0,0,20.191l36.337,20.19,36.1-20.19Z"/><g class="i"><path class="j" d="M36.1,0,0,20.191l36.337,20.19,36.1-20.19Z"/></g></g></g><g transform="translate(107.731 152.269)"><path class="a" d="M12.168,0A12.157,12.157,0,0,0,0,12.17H0A12.165,12.165,0,0,0,12.168,24.338h0A12.175,12.175,0,0,0,24.338,12.17h0A12.166,12.166,0,0,0,12.168,0Z" transform="translate(0)"/><g class="v" transform="translate(0)"><path class="l" d="M12.168,0A12.157,12.157,0,0,0,0,12.17H0A12.165,12.165,0,0,0,12.168,24.338h0A12.175,12.175,0,0,0,24.338,12.17h0A12.166,12.166,0,0,0,12.168,0Z" transform="translate(0)"/></g></g></g></svg>