<svg xmlns="http://www.w3.org/2000/svg" width="372.512" height="386.533" viewBox="0 0 372.512 386.533"><defs><style>.a{fill:#50e0b0;}.b{opacity:0;}.c{fill:#008e5f;}.d{opacity:0.2;}.e{fill:#edeef0;}.f{opacity:0.4;}.g{fill:#fff;}.h{isolation:isolate;}</style></defs><g transform="translate(-229.42 -3735.467)"><g transform="translate(229.42 3735.467)"><g transform="translate(33.599 36.11)"><rect class="a" width="302.802" height="314.313" rx="3.602"/></g><g class="b" transform="translate(46.848 50.039)"><path class="c" d="M309.253,593.869H76.18a21.638,21.638,0,0,1-21.615-21.615V329.03A21.638,21.638,0,0,1,76.18,307.415H309.253a21.64,21.64,0,0,1,21.618,21.615V572.255A21.64,21.64,0,0,1,309.253,593.869ZM76.18,316.807A12.238,12.238,0,0,0,63.957,329.03V572.255A12.236,12.236,0,0,0,76.18,584.477H309.253a12.236,12.236,0,0,0,12.223-12.223V329.03a12.238,12.238,0,0,0-12.223-12.223Z" transform="translate(-54.565 -307.415)"/></g><g class="d" transform="translate(33.6 36.109)"><path class="e" d="M347.077,315.587s-81.1,182.765-296.4,182.765V320.288s.916-16.92,16.917-16.92H336.558s6.326-.974,13.316,6.5Z" transform="translate(-50.676 -303.326)"/></g><g class="f" transform="translate(91.462 0)"><rect class="c" width="16.532" height="72.22" rx="1.76"/><g transform="translate(42.636)"><rect class="c" width="16.533" height="72.22" rx="1.76"/></g><g transform="translate(85.272)"><rect class="c" width="16.532" height="72.22" rx="1.76"/></g><g transform="translate(127.908)"><rect class="c" width="16.533" height="72.22" rx="1.76"/></g><g transform="translate(170.544)"><rect class="c" width="16.532" height="72.22" rx="1.76"/></g></g><g class="f" transform="translate(91.462 314.313)"><rect class="c" width="16.532" height="72.22" rx="1.76"/><g transform="translate(42.636)"><rect class="c" width="16.533" height="72.22" rx="1.76"/></g><g transform="translate(85.272)"><rect class="c" width="16.532" height="72.22" rx="1.76"/></g><g transform="translate(127.908)"><rect class="c" width="16.533" height="72.22" rx="1.76"/></g><g transform="translate(170.544)"><rect class="c" width="16.532" height="72.22" rx="1.76"/></g></g><g class="f" transform="translate(0 99.729)"><g transform="translate(0 170.543)"><rect class="c" width="16.533" height="72.22" rx="1.76" transform="translate(0 16.533) rotate(-90)"/></g><g transform="translate(0 127.908)"><rect class="c" width="16.532" height="72.22" rx="1.76" transform="translate(0 16.532) rotate(-90)"/></g><g transform="translate(0 85.271)"><rect class="c" width="16.532" height="72.22" rx="1.76" transform="translate(0 16.532) rotate(-90)"/></g><g transform="translate(0 42.635)"><rect class="c" width="16.533" height="72.22" rx="1.76" transform="translate(0 16.533) rotate(-90)"/></g><g transform="translate(0 0)"><rect class="c" width="16.532" height="72.22" rx="1.76" transform="translate(0 16.532) rotate(-90)"/></g></g><g class="f" transform="translate(300.291 99.729)"><g transform="translate(0 170.543)"><rect class="c" width="16.533" height="72.22" rx="1.76" transform="translate(0 16.533) rotate(-90)"/></g><g transform="translate(0 127.908)"><rect class="c" width="16.532" height="72.22" rx="1.76" transform="translate(0 16.532) rotate(-90)"/></g><g transform="translate(0 85.271)"><rect class="c" width="16.532" height="72.22" rx="1.76" transform="translate(0 16.532) rotate(-90)"/></g><g transform="translate(0 42.635)"><rect class="c" width="16.533" height="72.22" rx="1.76" transform="translate(0 16.533) rotate(-90)"/></g><g transform="translate(0 0)"><rect class="c" width="16.532" height="72.22" rx="1.76" transform="translate(0 16.532) rotate(-90)"/></g></g></g><circle class="g" cx="54" cy="54" r="54" transform="translate(362 3875)"/><g class="h" transform="translate(388.004 3891.13)"><path class="a" d="M35.578,75q-8.028,0-11.719-3.867A11.94,11.94,0,0,1,20.18,62.8a5.527,5.527,0,0,1,.645-2.754,4.765,4.765,0,0,1,1.758-1.759,6.131,6.131,0,0,1,5.473,0A4.687,4.687,0,0,1,29.8,60.044a5.414,5.414,0,0,1,.668,2.754,5.26,5.26,0,0,1-.937,3.223,4.368,4.368,0,0,1-2.227,1.63,6.082,6.082,0,0,0,3.515,2.192,17.419,17.419,0,0,0,4.793.691,10.683,10.683,0,0,0,6.035-1.8A10.546,10.546,0,0,0,45.586,63.4a23.163,23.163,0,0,0,1.289-7.98,21.9,21.9,0,0,0-1.406-8.3A10.242,10.242,0,0,0,41.4,41.964a10.813,10.813,0,0,0-5.858-1.676,11.146,11.146,0,0,0-5.074,1.723L26.707,43.9V42.011l16.91-22.685H20.18v23.54a8.423,8.423,0,0,0,1.289,4.816,4.442,4.442,0,0,0,3.937,1.887A6.584,6.584,0,0,0,29.3,48.2a14.048,14.048,0,0,0,3.258-3.352,1.17,1.17,0,0,1,.424-.562.866.866,0,0,1,.565-.211,1.956,1.956,0,0,1,1.1.468,2.346,2.346,0,0,1,.6,1.594,9.315,9.315,0,0,1-.211,1.172,11.346,11.346,0,0,1-4.02,4.991,9.97,9.97,0,0,1-5.638,1.713q-7.611,0-10.546-3a11.237,11.237,0,0,1-2.906-8.2V19.327H0V14.953H11.976V4.98L9.234,2.236V0h7.957L20.18,1.547V14.953l30.96-.094,3.082,3.094L35.238,37.029a12.759,12.759,0,0,1,3.586-.867,15.541,15.541,0,0,1,6.939,1.981,14.251,14.251,0,0,1,5.977,5.334,18.822,18.822,0,0,1,2.7,6.434,27.1,27.1,0,0,1,.645,5.508,23.04,23.04,0,0,1-2.344,10.207A14.968,14.968,0,0,1,45.7,72.656,22.753,22.753,0,0,1,35.578,75Z" transform="translate(-0.001)"/></g></g></svg>