<svg xmlns="http://www.w3.org/2000/svg" width="74.684" height="81.642" viewBox="0 0 74.684 81.642"><defs><style>.a{fill:#50e0b0;stroke:#50e0b0;stroke-width:2px;}</style></defs><g transform="translate(1.518 1.447)"><path class="a" d="M44.982,498.777c3.163-3.658,6.5-7.115,10.9-9.4,9.11-4.727,16.886-.527,18.059,9.775A34.9,34.9,0,0,1,72.6,512.623c-.842,2.994-.353,5.467,2.05,7.44a6.612,6.612,0,0,0,7.757.684c3.264-1.779,6.292-3.986,9.474-5.925,6.448-3.929,10.741-2.687,14.193,4.1a21.048,21.048,0,0,1,1.375,17.282c-.371-2.7-.7-5.4-1.131-8.087a38.789,38.789,0,0,0-1.074-5.214c-2.647-8.672-6.361-10.038-13.886-5.147-2.982,1.94-5.747,4.221-9.273,5.226-7.485,2.133-13.148-2.82-11.749-10.41.705-3.821,1.872-7.556,1.654-11.52-.589-10.625-7.8-14.508-16.608-8.732-3.393,2.224-6.426,5-9.622,7.518Z" transform="matrix(0.454, -0.891, 0.891, 0.454, -454.732, -124.455)"/></g></svg>