<svg xmlns="http://www.w3.org/2000/svg" width="89.429" height="69.018" viewBox="0 0 89.429 69.018"><defs><style>.a{fill:#50e0b0;}.b{fill:#101312;}.c{fill:#fefefe;}</style></defs><path class="a" d="M44.524,53.777H0C10.188,35.72,20.083,18.184,30.342,0c8.062,14.159,15.84,27.823,23.62,41.487.281.718-.217,1.076-.716,1.294-4.158,1.814-6.515,5.066-7.621,9.357a2.388,2.388,0,0,1-1.1,1.639Z" transform="matrix(0.94, -0.342, 0.342, 0.94, 0, 18.484)"/><path class="b" d="M0,12.553C.622,6.522,3.855,2.49,9.438.263c3.158-.352,6.289-.58,9.3.865A13.115,13.115,0,0,1,25.9,15.786c-1.11,5.519-6.628,10-12.467,10.127A13.019,13.019,0,0,1,.686,16.2C.369,15.01.224,13.772,0,12.553Z" transform="matrix(0.94, -0.342, 0.342, 0.94, 55.938, 41.994)"/><path class="c" d="M8.7.2C16.049-.919,21.9,2.738,22.957,9.1a11.519,11.519,0,0,1-9.421,13.688C6.726,24.174.6,18.985,0,11.316,1.858,9.1,4.4,10.054,6.653,10c6.229-.134,6.18-.023,3.278-5.56C9.259,3.162,7.723,2,8.7.2Z" transform="matrix(0.94, -0.342, 0.342, 0.94, 57.964, 42.882)"/><path class="a" d="M8.707,0c1.558,2.841,3.064,5.709,4.688,8.511.978,1.688.742,2.3-1.33,2.327-4.021.055-8.06-.424-12.066.277C.367,5.426,3.19,1.66,8.707,0Z" transform="matrix(0.94, -0.342, 0.342, 0.94, 58.03, 43.071)"/></svg>