<svg xmlns="http://www.w3.org/2000/svg" width="53.801" height="57.972" viewBox="0 0 53.801 57.972"><defs><style>.a{fill:none;stroke:#0e0f0f;stroke-width:1.5px;}.b{fill:#50e0b0;}</style></defs><g transform="translate(1.023)"><g transform="translate(29.845 0) rotate(60)"><path class="a" d="M32.787,3.247c2.565-.382,4.7-1.838,6.976-2.9,1.291-.6,1.93-.49,2.5.907.988,2.414,2.126,4.776,3.311,7.1.588,1.154.265,1.656-.823,2.155Q25.2,19.47,5.7,28.506c-.973.451-1.433.212-1.837-.679-1.178-2.594-2.331-5.2-3.617-7.743-.721-1.419.329-1.642,1.146-2.022,4.878-2.281,9.769-4.535,14.655-6.8,1.109.343,1.384,1.451,2.01,2.229,3.948,4.882,10.019,4.937,13.98.127,2.042-2.48,1.614-5.29,1.184-8.111C33.1,4.749,32.476,4.086,32.787,3.247Z" transform="translate(0 5.733)"/><path class="b" d="M22.139,5.3c3.843,6.269,2.033,13.852-4.128,17.286-6.177,3.446-13.546,1.038-16.9-5.521-.232-.455-.446-.921-.668-1.384C-1.954,6.015,5.722-.848,13.454.085A11.971,11.971,0,0,1,22.139,5.3Z" transform="translate(11.661 0)"/></g></g></svg>