<svg xmlns="http://www.w3.org/2000/svg" xmlns:xlink="http://www.w3.org/1999/xlink" width="496" height="496" viewBox="0 0 496 496"><defs><style>.a,.ah,.ai,.as{fill:#fff;}.a{opacity:0.46;}.b{clip-path:url(#a);}.c{fill:url(#b);}.d{fill:url(#c);}.e{fill:url(#d);}.f{fill:url(#e);}.g{fill:url(#f);}.h{fill:url(#g);}.i{fill:url(#h);}.j{fill:url(#i);}.k{fill:url(#j);}.l{fill:url(#k);}.m{fill:url(#l);}.n{fill:url(#m);}.o{fill:url(#n);}.p{fill:url(#o);}.q{fill:url(#p);}.r{fill:url(#q);}.s{fill:url(#r);}.aw,.az,.bi,.bl,.bt,.t{fill:none;}.t{stroke:#fff;}.aw,.az,.bi,.bl,.t{stroke-linecap:round;stroke-linejoin:round;}.bt,.t{stroke-width:1.521px;}.u{fill:url(#s);}.v{fill:url(#t);}.ac,.ah,.aw,.az,.bh,.w{opacity:0.15;}.ac,.ah,.ai,.w,.z{mix-blend-mode:overlay;isolation:isolate;}.x{fill:url(#u);}.y{fill:url(#v);}.ai,.bq,.z{opacity:0.25;}.aa{fill:url(#w);}.ab{fill:url(#x);}.ad{fill:url(#y);}.ae{fill:url(#z);}.af{fill:url(#aa);}.ag{fill:url(#ab);}.aj{fill:url(#ac);}.ak{fill:url(#ad);}.al{fill:url(#ae);}.am{fill:url(#af);}.an{fill:url(#ag);}.ao{fill:url(#ah);}.ap{fill:#2c7df7;}.aq{fill:#5697f9;}.ar{fill:url(#ai);}.at{fill:url(#aj);}.au{fill:url(#ak);}.av{fill:url(#al);}.aw,.az,.bi,.bl,.bt{stroke:#707070;}.aw{stroke-width:1.014px;}.ax{fill:url(#am);}.ay{fill:url(#an);}.az{stroke-width:1.441px;}.ba{fill:url(#ao);}.bb{fill:url(#ap);}.bc{fill:url(#aq);}.bd{fill:url(#ar);}.be{fill:url(#as);}.bf{fill:url(#at);}.bg{fill:url(#au);}.bi{stroke-width:1.075px;}.bj{fill:url(#av);}.bk{fill:url(#aw);}.bl{stroke-width:1.53px;}.bm{fill:url(#ax);}.bn{fill:url(#ay);}.bo{opacity:0.05;fill:url(#az);}.bp{fill:url(#ba);}.bq{fill:url(#bb);}.br{fill:url(#bc);}.bs{fill:url(#bd);}.bt{stroke-miterlimit:10;}.bu{fill:url(#be);}.bv{fill:url(#bf);}.bw{fill:url(#bg);}.bx{fill:url(#bh);}.by{fill:url(#bi);}.bz{fill:url(#bj);}</style><clipPath id="a"><circle class="a" cx="248" cy="248" r="248" transform="translate(133 4261)"/></clipPath><linearGradient id="b" x1="0.406" y1="-0.075" x2="0.719" y2="1.378" gradientUnits="objectBoundingBox"><stop offset="0" stop-color="#d6f9ef"/><stop offset="1" stop-color="#6ca8ff"/></linearGradient><linearGradient id="c" x1="0.539" y1="2.225" x2="1.006" y2="24.222" gradientUnits="objectBoundingBox"><stop offset="0" stop-color="#7383a9"/><stop offset="1" stop-color="#4b547c"/></linearGradient><linearGradient id="d" x1="0.484" y1="-1.673" x2="0.508" y2="0.798" xlink:href="#c"/><linearGradient id="e" x1="1.184" y1="-0.113" x2="0.913" y2="0.206" xlink:href="#c"/><linearGradient id="f" x1="0.39" y1="-0.977" x2="0.62" y2="3.055" xlink:href="#b"/><linearGradient id="g" x1="-0.32" y1="-0.709" x2="1.63" y2="2.166" xlink:href="#b"/><linearGradient id="h" x1="0.389" y1="0.338" x2="1.73" y2="2.291" xlink:href="#b"/><linearGradient id="i" x1="0.074" y1="-0.352" x2="1.068" y2="1.637" xlink:href="#b"/><linearGradient id="j" x1="0.043" y1="-0.287" x2="1.528" y2="2.27" xlink:href="#b"/><linearGradient id="k" x1="0.144" y1="0.098" x2="1.453" y2="1.577" xlink:href="#b"/><linearGradient id="l" x1="0.629" y1="0.644" x2="1.511" y2="1.626" xlink:href="#b"/><linearGradient id="m" x1="0.296" y1="0.214" x2="1.097" y2="1.337" xlink:href="#b"/><linearGradient id="n" x1="0.32" y1="0.272" x2="1.431" y2="1.676" xlink:href="#b"/><linearGradient id="o" x1="0.846" y1="1.413" x2="0.067" y2="-0.643" xlink:href="#c"/><linearGradient id="p" x1="0.489" y1="0.527" x2="1.45" y2="-1.729" xlink:href="#c"/><linearGradient id="q" x1="0.433" y1="0.004" x2="0.567" y2="0.996" xlink:href="#c"/><linearGradient id="r" x1="-0.325" y1="-1.136" x2="0.608" y2="0.714" xlink:href="#c"/><linearGradient id="s" x1="0.638" y1="1.093" x2="0.383" y2="-0.004" xlink:href="#c"/><linearGradient id="t" x1="0.69" y1="1.299" x2="0.398" y2="0.042" xlink:href="#c"/><linearGradient id="u" x1="0.66" y1="1.201" x2="0.372" y2="-0.068" xlink:href="#c"/><linearGradient id="v" x1="0.626" y1="1.048" x2="0.361" y2="-0.109" xlink:href="#c"/><linearGradient id="w" x1="-0.319" y1="6.941" x2="0.707" y2="-1.126" gradientUnits="objectBoundingBox"><stop offset="0" stop-color="#b9e7fb"/><stop offset="1" stop-color="#fff"/></linearGradient><linearGradient id="x" x1="1.011" y1="-0.129" x2="0.172" y2="0.904" xlink:href="#w"/><linearGradient id="y" x1="0.474" y1="-9.534" x2="0.536" y2="14.108" xlink:href="#c"/><linearGradient id="z" x1="1.051" y1="0.804" x2="1.044" y2="0.8" xlink:href="#c"/><linearGradient id="aa" x1="0.457" y1="-0.772" x2="0.544" y2="1.81" xlink:href="#c"/><linearGradient id="ab" x1="2.727" y1="-0.139" x2="3.066" y2="2.12" gradientUnits="objectBoundingBox"><stop offset="0" stop-color="#302849"/><stop offset="1" stop-color="#4b4660"/></linearGradient><linearGradient id="ac" x1="0.677" y1="6.814" x2="0.506" y2="0.72" xlink:href="#c"/><linearGradient id="ad" x1="0.409" y1="-7.139" x2="0.624" y2="10.86" xlink:href="#ab"/><linearGradient id="ae" x1="0.409" y1="-7.139" x2="0.624" y2="10.86" xlink:href="#ab"/><linearGradient id="af" x1="0.409" y1="-7.139" x2="0.624" y2="10.86" xlink:href="#ab"/><linearGradient id="ag" x1="0.238" y1="-6.708" x2="0.855" y2="10.275" xlink:href="#ab"/><linearGradient id="ah" x1="0.477" y1="-8.804" x2="0.512" y2="5.189" xlink:href="#c"/><linearGradient id="ai" x1="0.545" y1="0.125" x2="0.778" y2="-1.834" xlink:href="#w"/><linearGradient id="aj" x1="0.138" y1="0.78" x2="0.862" y2="0.22" xlink:href="#ab"/><linearGradient id="ak" x1="0.306" y1="0.089" x2="0.826" y2="1.193" gradientUnits="objectBoundingBox"><stop offset="0.009" stop-color="#ffbdc9"/><stop offset="1" stop-color="#ff7b8d"/></linearGradient><linearGradient id="al" x1="-0.507" y1="1.369" x2="1.56" y2="-0.686" gradientUnits="objectBoundingBox"><stop offset="0" stop-color="#2d7592"/><stop offset="1" stop-color="#4ec4b3"/></linearGradient><linearGradient id="am" x1="0.709" y1="1.284" x2="0.377" y2="-0.09" gradientUnits="objectBoundingBox"><stop offset="0" stop-color="#2d7592"/><stop offset="0.598" stop-color="#4ed18b"/><stop offset="1" stop-color="#cee086"/></linearGradient><linearGradient id="an" x1="-0.457" y1="3.653" x2="-2.519" y2="0.219" xlink:href="#am"/><linearGradient id="ao" x1="0.478" y1="1.177" x2="0.502" y2="-0.077" xlink:href="#w"/><linearGradient id="ap" x1="-0.483" y1="1.273" x2="1.925" y2="-0.934" xlink:href="#w"/><linearGradient id="aq" x1="1.195" y1="3.127" x2="0.238" y2="-0.568" xlink:href="#w"/><linearGradient id="ar" x1="0.415" y1="1.778" x2="0.615" y2="-1.233" xlink:href="#w"/><linearGradient id="as" x1="0.413" y1="1.801" x2="0.614" y2="-1.209" xlink:href="#w"/><linearGradient id="at" x1="0.412" y1="1.825" x2="0.612" y2="-1.186" xlink:href="#w"/><linearGradient id="au" x1="1.086" y1="6.262" x2="0.115" y2="-2.968" xlink:href="#am"/><linearGradient id="av" x1="6.849" y1="1.067" x2="6.58" y2="-0.067" xlink:href="#ab"/><linearGradient id="aw" x1="44.425" y1="1.067" x2="44.156" y2="-0.067" xlink:href="#ab"/><linearGradient id="ax" x1="6.932" y1="0.951" x2="6.498" y2="0.049" xlink:href="#ab"/><linearGradient id="ay" x1="44.511" y1="0.951" x2="44.078" y2="0.049" xlink:href="#ab"/><linearGradient id="az" x1="0" y1="0.5" x2="1" y2="0.5" xlink:href="#ab"/><linearGradient id="ba" x1="0.573" y1="2.028" x2="0.312" y2="-3.144" gradientUnits="objectBoundingBox"><stop offset="0" stop-color="#ffa440"/><stop offset="1" stop-color="#ffda92"/></linearGradient><linearGradient id="bb" x1="0" y1="0.5" x2="1" y2="0.5" xlink:href="#ab"/><linearGradient id="bc" x1="1.299" y1="1.442" x2="0.03" y2="-0.054" xlink:href="#w"/><linearGradient id="bd" x1="1.344" y1="2.226" x2="0.001" y2="-0.39" gradientUnits="objectBoundingBox"><stop offset="0" stop-color="#9a98f4"/><stop offset="1" stop-color="#fecfff"/></linearGradient><linearGradient id="be" x1="0.688" y1="1.79" x2="0.407" y2="-0.138" xlink:href="#ba"/><linearGradient id="bf" x1="0" y1="0.5" x2="1" y2="0.5" xlink:href="#ab"/><linearGradient id="bg" x1="0" y1="0.5" x2="1" y2="0.5" xlink:href="#ab"/><linearGradient id="bh" x1="-0.383" y1="-0.095" x2="1.058" y2="2.069" gradientUnits="objectBoundingBox"><stop offset="0" stop-color="#fff" stop-opacity="0"/><stop offset="1" stop-color="#fff"/></linearGradient><linearGradient id="bi" x1="-0.139" y1="-0.23" x2="1.302" y2="1.934" xlink:href="#bh"/><linearGradient id="bj" x1="-64.611" y1="52.61" x2="-62.657" y2="55.546" xlink:href="#bh"/></defs><g class="b" transform="translate(-133 -4261)"><g transform="translate(-249.998 4228.234)"><path class="c" d="M855.142,101.432V603.9h-9.453a66.285,66.285,0,0,0-7.425-14.412c-9.878-14.9-26.788-30.732-47.68-43.3-25.012-15.039-55.719-25.4-86.887-23.865-65.865,3.234-185.2,59.568-267.018-7.772a111.953,111.953,0,0,1-32.6-43.951,117.192,117.192,0,0,1-6.068-19.237,123.138,123.138,0,0,1-2.2-13.1C388.4,372.874,432.43,303.035,501.388,306.1c13.175.584,26.395-4.5,39.774-13.492a175.859,175.859,0,0,0,21.309-17.233c25.178-23.44,51.122-57.17,78.588-90.04q2.8-3.348,5.618-6.683,5.117-6.047,10.31-12.008,2.939-3.348,5.891-6.658,1.654-1.862,3.322-3.7,2.881-3.166,5.782-6.271C725.21,92.991,784.643,53.029,855.142,101.432Z" transform="translate(0 0)"/><path class="d" d="M854.979,366.473v13.1H397.845a123.13,123.13,0,0,1-2.2-13.1Z" transform="translate(0.162 71.79)"/><path class="e" d="M854.539,376.949V529.486h-9.453a66.285,66.285,0,0,0-7.425-14.412c-9.878-14.9-26.788-30.732-47.68-43.3-4.2-2.523-8.565-4.92-13.06-7.145-3.7-1.833-7.489-3.557-11.356-5.143a152.882,152.882,0,0,0-47.3-11.412,128.854,128.854,0,0,0-15.166-.165c-5.25.26-10.842.85-16.727,1.693q-4.6.666-9.434,1.509c-40.356,7.037-92.227,22.667-142.752,21.906-3.266-.051-6.531-.165-9.777-.361-24.538-1.452-48.549-7.183-70.556-20.1q-4.224-2.472-8.344-5.307-4.794-3.3-9.428-7.114a111.954,111.954,0,0,1-32.6-43.951,117.192,117.192,0,0,1-6.068-19.237Z" transform="translate(0.603 74.413)"/><path class="f" d="M790.287,396.376V525.764h-9.453a66.285,66.285,0,0,0-7.425-14.412c-9.878-14.9-26.788-30.732-47.68-43.3-4.2-2.523-8.565-4.92-13.06-7.145-3.7-1.833-7.489-3.557-11.356-5.143a152.882,152.882,0,0,0-47.3-11.412,126.459,126.459,0,0,1,136.279-47.978Z" transform="translate(64.855 78.134)"/><g transform="translate(666.2 128.653)"><path class="g" d="M709.523,139.121l-19.979-19.979a.952.952,0,0,0-1.345,0L667.78,139.561a.951.951,0,1,0,1.344,1.345l19.747-19.747,19.306,19.307a.951.951,0,0,0,1.345-1.345Z" transform="translate(-597.967 -118.863)"/><g transform="translate(0 21.37)"><path class="h" d="M782.991,135.954V278.543h-171.1V142.225q2.881-3.166,5.782-6.271Z" transform="translate(-611.891 -135.954)"/><rect class="i" width="171.101" height="142.591" transform="translate(5.89)"/><rect class="j" width="134.215" height="108.115" transform="translate(26.574 17.238)"/><rect class="k" width="128.603" height="108.115" transform="translate(26.574 17.238)"/></g></g><g transform="translate(541.162 159.99)"><g transform="translate(0)"><path class="l" d="M627.717,149.25V275.213H511.892A175.859,175.859,0,0,0,533.2,257.98c25.178-23.44,51.122-57.171,78.588-90.04q2.8-3.348,5.618-6.683Q622.524,155.211,627.717,149.25Z" transform="translate(-511.892 -142.592)"/><path class="m" d="M633.608,143.925V276.547H511.892A175.859,175.859,0,0,0,533.2,259.314c25.178-23.44,51.122-57.17,78.588-90.04q2.8-3.348,5.618-6.683,5.117-6.047,10.31-12.008Q630.656,147.235,633.608,143.925Z" transform="translate(-511.892 -143.925)"/><path class="n" d="M613.141,158.853v96.723H528.934c25.178-23.44,51.122-57.17,78.588-90.04Q610.319,162.188,613.141,158.853Z" transform="translate(-507.625 -140.187)"/><path class="o" d="M607.522,164.2v90.04H528.934C554.112,230.8,580.056,197.067,607.522,164.2Z" transform="translate(-507.625 -138.849)"/></g></g><g transform="translate(446.057 239.91)"><path class="p" d="M2.935,0H25.341a2.934,2.934,0,0,1,2.934,2.934V25.341a2.935,2.935,0,0,1-2.935,2.935H2.934A2.934,2.934,0,0,1,0,25.341V2.935A2.935,2.935,0,0,1,2.935,0Z" transform="translate(129.718 254.674)"/><path class="q" d="M2.935,0H25.341a2.934,2.934,0,0,1,2.934,2.934V25.341a2.935,2.935,0,0,1-2.935,2.935H2.934A2.934,2.934,0,0,1,0,25.341V2.935A2.935,2.935,0,0,1,2.935,0Z" transform="translate(132.092 254.674)"/><circle class="r" cx="6.475" cy="6.475" r="6.475" transform="translate(139.485 262.337)"/><circle class="s" cx="3.238" cy="3.238" r="3.238" transform="translate(142.723 265.574)"/><path class="t" d="M601.02,311.03C622.886,408.607,614.4,460.2,552.779,450.815" transform="translate(-406.55 -182.003)"/><g transform="translate(0.05 146.913)"><path class="u" d="M555.032,325.334l-18.051,62.643-.545,1.9-27.688,96.069c-3.266-.051-6.531-.165-9.777-.361l27.586-95.708,1.28-4.444,17.322-60.1Z" transform="translate(-420.072 -325.334)"/><path class="v" d="M484.61,325.334,470.1,375.659l-4.1,14.214-21.792,75.609q-4.224-2.472-8.344-5.307l20.264-70.3,3.779-13.1,14.823-51.44Z" transform="translate(-435.872 -325.334)"/><g class="w" transform="translate(24.043)"><path d="M469.923,325.334H479.8l-14.507,50.325c-3.487.215-6.891.583-10.188,1.115Z" transform="translate(-455.1 -325.334)"/><path d="M549.252,325.334,531.2,387.977q-4.423-1.285-9.143-2.548l17.322-60.1Z" transform="translate(-438.334 -325.334)"/></g></g><g transform="translate(191.496 146.913)"><path class="x" d="M638.4,462.527q-4.6.666-9.434,1.509l-17.03-59.08-4.349-15.083-18.6-64.539h9.872l18.6,64.539,4.45,15.445Z" transform="translate(-588.981 -325.334)"/><path class="y" d="M711.684,477.554c-3.7-1.833-7.489-3.557-11.356-5.143L681.8,408.1l-5.25-18.222-18.6-64.539h9.872l18.6,64.539,5.358,18.583Z" transform="translate(-571.713 -325.334)"/><g class="z" transform="translate(0 0)"><path d="M621.907,405.318l-9.973-.361-22.952-79.622h9.872Z" transform="translate(-588.981 -325.334)"/><path d="M691.768,408.457,681.8,408.1l-23.852-82.761h9.872Z" transform="translate(-571.714 -325.334)"/></g></g><g transform="translate(3.339 132.343)"><path class="aa" d="M733.781,320.967a7.283,7.283,0,0,1-7.286,7.285H445.789a7.285,7.285,0,0,1,0-14.57H726.495A7.29,7.29,0,0,1,733.781,320.967Z" transform="translate(-438.503 -313.682)"/><path class="ab" d="M758.293,320.967a7.251,7.251,0,0,1-2.131,5.155,7.27,7.27,0,0,1-5.154,2.129H528.258a7.285,7.285,0,0,1,0-14.57h222.75A7.285,7.285,0,0,1,758.293,320.967Z" transform="translate(-417.853 -313.682)"/><path class="ac" d="M778.348,322.406a7.281,7.281,0,0,1-6.69,4.386H445.789a7.286,7.286,0,0,1-7.286-7.285H772.539A7.252,7.252,0,0,1,778.348,322.406Z" transform="translate(-438.503 -312.223)"/></g><g transform="translate(0 28.329)"><rect class="ad" width="117.316" height="9.244" rx="3.366" transform="translate(116.33 94.773)"/><path class="ae" d="M588.621,325.273H453.844a5.59,5.59,0,0,1-5.339-4.654l-12.623-85.474a3.92,3.92,0,0,1,3.969-4.648H574.622a5.583,5.583,0,0,1,5.338,4.648l.025.159,7.127,48.275,5.447,36.888.025.152A3.919,3.919,0,0,1,588.621,325.273Z" transform="translate(-435.832 -230.497)"/><path class="af" d="M592.246,325.273H457.47a5.589,5.589,0,0,1-5.339-4.654l-12.624-85.474a3.918,3.918,0,0,1,3.97-4.648h134.77a5.583,5.583,0,0,1,5.339,4.648l7.151,48.434,5.473,37.04A3.919,3.919,0,0,1,592.246,325.273Z" transform="translate(-434.925 -230.497)"/><path class="ag" d="M587.85,321.229H459.325a5.255,5.255,0,0,1-5.023-4.375l-11.71-79.291a3.685,3.685,0,0,1,3.73-4.375H574.847a5.252,5.252,0,0,1,5.022,4.375l11.71,79.291A3.684,3.684,0,0,1,587.85,321.229Z" transform="translate(-434.151 -229.823)"/><path class="ah" d="M547.821,296.546H479.333a2.8,2.8,0,0,1-2.676-2.333l-5.649-38.251-.59-4a1.968,1.968,0,0,1,1.992-2.333h68.482a2.8,2.8,0,0,1,2.676,2.333l.589,4,5.649,38.251A1.962,1.962,0,0,1,547.821,296.546Z" transform="translate(-427.179 -225.705)"/><path class="ah" d="M544.156,255.962H471.008l-.59-4a1.968,1.968,0,0,1,1.992-2.333h68.482a2.8,2.8,0,0,1,2.676,2.333Z" transform="translate(-427.179 -225.705)"/><path class="ai" d="M476.717,252.318a.771.771,0,1,1-.771-.77A.771.771,0,0,1,476.717,252.318Z" transform="translate(-425.981 -225.226)"/><circle class="ai" cx="0.771" cy="0.771" r="0.771" transform="translate(53.241 26.322)"/><circle class="ai" cx="0.771" cy="0.771" r="0.771" transform="translate(57.288 26.322)"/><rect class="aj" width="111.758" height="9.244" rx="3.285" transform="translate(22.547 94.773)"/><path class="ak" d="M471.869,311.552H467.19a1.3,1.3,0,0,1-1.3-1.3h0a1.3,1.3,0,0,1,1.3-1.3h4.679a1.3,1.3,0,0,1,1.3,1.3h0A1.3,1.3,0,0,1,471.869,311.552Z" transform="translate(-428.307 -210.854)"/><path class="al" d="M480.241,311.552h-4.679a1.3,1.3,0,0,1-1.3-1.3h0a1.3,1.3,0,0,1,1.3-1.3h4.679a1.3,1.3,0,0,1,1.3,1.3h0A1.3,1.3,0,0,1,480.241,311.552Z" transform="translate(-426.21 -210.854)"/><path class="am" d="M488.613,311.552h-4.679a1.3,1.3,0,0,1-1.3-1.3h0a1.3,1.3,0,0,1,1.3-1.3h4.679a1.3,1.3,0,0,1,1.3,1.3h0A1.3,1.3,0,0,1,488.613,311.552Z" transform="translate(-424.114 -210.854)"/><path class="an" d="M521.715,311.552h0a1.194,1.194,0,0,1-1.194-1.193v-.219a1.194,1.194,0,0,1,1.194-1.194h0a1.194,1.194,0,0,1,1.194,1.194v.219A1.194,1.194,0,0,1,521.715,311.552Z" transform="translate(-414.627 -210.854)"/><rect class="ao" width="24.822" height="2.067" transform="translate(169.649 94.773)"/></g><path class="ac" d="M581.245,283.579H500.277a12.409,12.409,0,0,1-12.041-9.412l-10.033-40.3-.838-3.367h91.39a5.583,5.583,0,0,1,5.339,4.648Z" transform="translate(-425.433 -202.168)"/><g transform="translate(47.556)"><g transform="translate(150.725)"><path class="ap" d="M675.279,259.789c0,.4-.006.792-.014,1.185a63.169,63.169,0,0,1-5.192,24.315,53.189,53.189,0,0,1-4.179,7.774,51.512,51.512,0,0,0-2.688,4.66c-.413.779-.78,1.534-1.122,2.257-.8,1.654-1.472,3.157-2.176,4.5-.26.508-.533.989-.811,1.445a10.362,10.362,0,0,1-5.332,4.7,17.326,17.326,0,0,1-5.06,1.034c-.165.013-.843.019-1.819.031-3.64.033-11.425.051-12.04.051a31.985,31.985,0,0,1-8.37-1.117,34.721,34.721,0,0,1-10.252-4.7,40.57,40.57,0,0,1-3.816-2.9,43.953,43.953,0,0,1-4.7-4.705q-1.2-1.388-2.3-2.9a49.42,49.42,0,0,1-3.063-4.705c-.545-.944-1.064-1.908-1.559-2.9q-1.14-2.273-2.086-4.705c-.374-.95-.723-1.921-1.053-2.9-.184-.551-.355-1.109-.526-1.667q-.447-1.495-.83-3.037c-.235-.958-.45-1.922-.646-2.9-.305-1.541-.551-3.106-.749-4.7-.114-.958-.215-1.928-.285-2.9-.12-1.553-.19-3.118-.2-4.7-.006-.159-.006-.324-.006-.481,0-.813.013-1.617.045-2.422.056-1.585.164-3.158.335-4.705q.152-1.465.38-2.9c.235-1.6.539-3.164.894-4.705.223-.983.47-1.946.736-2.9q.675-2.406,1.534-4.705c.361-.982.754-1.952,1.167-2.9q1.056-2.434,2.307-4.7c.545-1,1.123-1.966,1.719-2.9a49.565,49.565,0,0,1,3.385-4.7c.831-1.015,1.687-1.984,2.581-2.9a40.673,40.673,0,0,1,5.377-4.705,35.981,35.981,0,0,1,4.635-2.9,32.679,32.679,0,0,1,15.344-3.875c.551,0,8.179.014,12.408.039,1.49.013,2.556.025,2.746.038,12.078.838,18.583,8.484,21.957,20q.437,1.5.812,3.1c1.869,8.008,2.478,17.582,2.5,27.891C675.279,259.2,675.279,259.5,675.279,259.789Z" transform="translate(-594.407 -207.841)"/><g transform="translate(0 3.875)"><path class="ah" d="M655.812,210.94v2.9H610.77a35.981,35.981,0,0,1,4.635-2.9Z" transform="translate(-590.31 -210.94)"/><path class="ah" d="M657.405,217.025v2.9h-53c.831-1.015,1.687-1.984,2.581-2.9Z" transform="translate(-591.903 -209.416)"/><path class="ah" d="M658.427,223.109v2.9h-58.1c.545-1,1.123-1.966,1.719-2.9Z" transform="translate(-592.925 -207.893)"/><path class="ah" d="M659.123,229.194v2.9H597.546c.361-.982.754-1.952,1.167-2.9Z" transform="translate(-593.621 -206.369)"/><path class="ah" d="M659.578,235.279v2.9H595.73c.223-.983.47-1.946.736-2.9Z" transform="translate(-594.076 -204.846)"/><path class="ah" d="M659.833,241.364v2.9H594.711q.152-1.465.38-2.9Z" transform="translate(-594.331 -203.322)"/><path class="ah" d="M659.909,247.449v2.9h-65.5c-.006-.159-.006-.324-.006-.481,0-.813.013-1.617.045-2.422Z" transform="translate(-594.407 -201.798)"/><path class="ah" d="M659.868,253.533v2.9H594.854c-.114-.958-.215-1.928-.285-2.9Z" transform="translate(-594.366 -200.275)"/><path class="ah" d="M659.661,259.618v2.9H596.042c-.235-.958-.45-1.922-.646-2.9Z" transform="translate(-594.159 -198.751)"/><path class="ah" d="M659.26,265.7v2.9H598.051c-.374-.95-.723-1.921-1.053-2.9Z" transform="translate(-593.758 -197.228)"/><path class="ah" d="M658.632,271.788v2.9H601.067c-.545-.944-1.064-1.908-1.559-2.9Z" transform="translate(-593.13 -195.704)"/><path class="ah" d="M657.706,277.873v2.9h-52.2q-1.2-1.388-2.3-2.9Z" transform="translate(-592.204 -194.18)"/><path class="ah" d="M656.3,283.958v2.9H612.619a40.567,40.567,0,0,1-3.816-2.9Z" transform="translate(-590.802 -192.657)"/><path class="ah" d="M647.344,290.042a17.326,17.326,0,0,1-5.06,1.034c-.165.013-.843.019-1.819.031-3.64.033-11.425.051-12.04.051a31.986,31.986,0,0,1-8.37-1.117Z" transform="translate(-587.985 -191.133)"/></g><path class="aq" d="M686.358,259.789a64.108,64.108,0,0,1-4.14,22.914,55.246,55.246,0,0,1-5.238,10.361c-7.417,11.412-18.577,18.678-31.049,18.678-.608,0-1.217-.019-1.819-.051a31.859,31.859,0,0,1-6.556-1.065,34.707,34.707,0,0,1-10.252-4.7,40.569,40.569,0,0,1-3.817-2.9,43.932,43.932,0,0,1-4.7-4.705q-1.189-1.388-2.3-2.9a49.731,49.731,0,0,1-3.068-4.705c-.545-.944-1.065-1.908-1.559-2.9q-1.133-2.273-2.087-4.705c-.374-.95-.723-1.921-1.052-2.9-.185-.551-.355-1.109-.526-1.667q-.448-1.495-.831-3.037c-.234-.958-.45-1.922-.64-2.9q-.465-2.311-.748-4.7c-.12-.958-.216-1.928-.291-2.9-.121-1.553-.19-3.118-.2-4.7-.007-.159-.007-.324-.007-.481,0-.813.014-1.617.045-2.422.058-1.585.165-3.158.336-4.705q.152-1.465.38-2.9c.235-1.6.539-3.164.894-4.705.221-.983.469-1.946.735-2.9q.675-2.406,1.534-4.705c.361-.982.755-1.952,1.167-2.9.7-1.623,1.478-3.195,2.308-4.7.545-1,1.122-1.966,1.718-2.9a49.592,49.592,0,0,1,3.392-4.7c.824-1.015,1.68-1.984,2.581-2.9a40.99,40.99,0,0,1,5.369-4.705,36.317,36.317,0,0,1,4.641-2.9,32.636,32.636,0,0,1,13.892-3.836c.481-.025.964-.039,1.452-.039C668.262,207.841,686.358,231.1,686.358,259.789Z" transform="translate(-591.633 -207.841)"/><ellipse class="ap" cx="26.575" cy="34.142" rx="26.575" ry="34.142" transform="translate(27.719 17.808)"/><g transform="translate(20.276 8.243)"><path class="ar" d="M667.9,226.264c-6.087-7.335-14.273-11.831-23.257-11.831a27.335,27.335,0,0,0-12.839,3.241,30.766,30.766,0,0,0-4.533,2.9,35.434,35.434,0,0,0-5.028,4.7c-.825.92-1.6,1.889-2.353,2.9a44.254,44.254,0,0,0-3,4.7c-.52.939-1.014,1.908-1.472,2.9a48.465,48.465,0,0,0-1.9,4.705c-.329.952-.634,1.921-.906,2.9q-.647,2.3-1.084,4.705c-.178.958-.33,1.921-.45,2.9-.2,1.54-.336,3.113-.405,4.705-.033.8-.051,1.609-.051,2.422,0,.158,0,.323.006.481.006,1.592.089,3.157.235,4.7.089.977.2,1.947.341,2.9.185,1.262.413,2.5.679,3.721.07.33.146.66.229.983.234.983.494,1.953.779,2.9a47.112,47.112,0,0,0,1.674,4.7c.405.989.843,1.959,1.307,2.9a44.719,44.719,0,0,0,2.675,4.705c.654,1.008,1.344,1.978,2.061,2.9a38.392,38.392,0,0,0,4.331,4.705,34.037,34.037,0,0,0,3.639,2.9,28.869,28.869,0,0,0,11.02,4.705,26.63,26.63,0,0,0,10.081,0,28.425,28.425,0,0,0,8.345-3.037A37.744,37.744,0,0,0,672.606,283a52.417,52.417,0,0,0,6.056-24.86C678.662,245.578,674.514,234.24,667.9,226.264Zm3.214,56.943a36.743,36.743,0,0,1-11.964,12.865,26.381,26.381,0,0,1-28.044.589,31.145,31.145,0,0,1-4.153-2.9,35.642,35.642,0,0,1-4.724-4.705q-1.15-1.379-2.2-2.9a42.113,42.113,0,0,1-2.815-4.705c-.489-.938-.945-1.908-1.37-2.9a47.512,47.512,0,0,1-1.743-4.7c-.3-.952-.571-1.916-.805-2.9-.033-.108-.064-.221-.089-.335-.343-1.427-.628-2.886-.85-4.369-.151-.958-.266-1.928-.361-2.9q-.218-2.32-.24-4.7c-.007-.159-.007-.324-.007-.481,0-.813.02-1.617.057-2.422.07-1.592.209-3.165.413-4.705.126-.983.285-1.946.469-2.9.3-1.6.679-3.177,1.123-4.705q.428-1.474.944-2.9a46.732,46.732,0,0,1,1.978-4.705c.483-1,1-1.964,1.547-2.9a41.273,41.273,0,0,1,3.177-4.7,37.177,37.177,0,0,1,2.523-2.9,33.107,33.107,0,0,1,5.6-4.7,28.708,28.708,0,0,1,5.56-2.9,25.984,25.984,0,0,1,19.015,0c.571.221,1.142.463,1.7.729a33.681,33.681,0,0,1,12.859,10.962,49.163,49.163,0,0,1,8.831,28.773A50.4,50.4,0,0,1,671.11,283.207Z" transform="translate(-610.623 -214.433)"/></g><g transform="translate(40.473 33.627)"><path class="as" d="M642.056,268.312c-2.172.29-3.785-.083-4.817-1.129a5.075,5.075,0,0,1-1.559-3.645,2.874,2.874,0,0,1,.27-1.3,2.439,2.439,0,0,1,.74-.883,2.386,2.386,0,0,1,2.279-.228,1.762,1.762,0,0,1,.721.723,2.5,2.5,0,0,1,.276,1.215,2.767,2.767,0,0,1-.38,1.5,2.148,2.148,0,0,1-.917.848,2.14,2.14,0,0,0,1.449.819,6.206,6.206,0,0,0,1.943.07,4.414,4.414,0,0,0,2.4-1.1,5.407,5.407,0,0,0,1.527-2.531,11.9,11.9,0,0,0,.483-3.555,10.376,10.376,0,0,0-.559-3.591,4.056,4.056,0,0,0-1.594-2.152,3.776,3.776,0,0,0-2.326-.591,4.512,4.512,0,0,0-2.049.91l-1.544.962,0-.857,6.747-10.4-9.5.21.021,10.768a3.912,3.912,0,0,0,.55,2.167,1.666,1.666,0,0,0,1.652.729,2.779,2.779,0,0,0,1.6-.749,6.756,6.756,0,0,0,1.323-1.609.578.578,0,0,1,.17-.264.359.359,0,0,1,.228-.111.7.7,0,0,1,.445.178,1.048,1.048,0,0,1,.243.694,4.777,4.777,0,0,1-.083.53,5.606,5.606,0,0,1-1.619,2.373,4.187,4.187,0,0,1-2.322.984c-2.132.2-3.634-.13-4.479-.983A5.1,5.1,0,0,1,632.1,254.6l-.013-10.912-5.315.118v-2.072l5.34-.073-.006-4.611-1.2-1.282v-1.037l3.447.055,1.27.724.011,6.1,12.381-.206,1.167,1.312-7.321,8.626a4.855,4.855,0,0,1,1.427-.465A5.351,5.351,0,0,1,646,251.6a5.286,5.286,0,0,1,2.3,2.173,8.255,8.255,0,0,1,1.032,2.7,13.058,13.058,0,0,1,.254,2.357,11.9,11.9,0,0,1-.86,4.511,7.328,7.328,0,0,1-2.676,3.4,9.11,9.11,0,0,1-3.994,1.567Z" transform="translate(-626.775 -234.734)"/></g></g><path class="ac" d="M684.894,270.679a55.245,55.245,0,0,1-5.238,10.361c-7.417,11.412-18.577,18.678-31.049,18.678-.608,0-1.217-.019-1.819-.051-3.64.033-11.425.051-12.04.051a31.986,31.986,0,0,1-8.37-1.117,34.723,34.723,0,0,1-10.252-4.7,40.576,40.576,0,0,1-3.816-2.9,43.951,43.951,0,0,1-4.7-4.705q-1.2-1.388-2.3-2.9a49.423,49.423,0,0,1-3.063-4.705c-.545-.944-1.064-1.908-1.559-2.9q-1.14-2.273-2.086-4.705c-.374-.95-.723-1.921-1.053-2.9-.184-.551-.355-1.109-.526-1.667q-.447-1.495-.83-3.037c-.235-.958-.45-1.922-.646-2.9-.305-1.54-.551-3.106-.749-4.7h14.076s2.587,1.547,6.975,3.721c.425.21.863.425,1.319.648.228.114.463.221.7.335,1.908.914,4.076,1.9,6.455,2.9q.4.171.818.343C628.7,265.29,632.7,266.8,637,268.169c3.411,1.084,7.012,2.086,10.727,2.9a90.061,90.061,0,0,0,18.5,2.252q1.883.028,3.754-.058c1.706-.076,3.411-.215,5.1-.431.5-.064,1-.133,1.5-.209A51.542,51.542,0,0,0,684.894,270.679Z" transform="translate(-443.584 -195.818)"/><path class="at" d="M605.995,268.306c.677,1.926.2,3.847-1.065,4.291s-2.84-.756-3.516-2.682-.2-3.847,1.067-4.293S605.318,266.379,605.995,268.306Z" transform="translate(-442.004 -193.396)"/><path class="t" d="M478,320.4c-11.655,33.167-1.63,109.3,68.638,109.359,99.348.083,47.94-144.844,88.927-161.37" transform="translate(-473.865 -192.679)"/></g><path class="au" d="M485.3,379.785l-6.268-9.44a4.693,4.693,0,0,1,1.314-6.507h0a4.693,4.693,0,0,1,6.507,1.314l6.27,9.439A4.7,4.7,0,0,1,491.8,381.1h0A4.7,4.7,0,0,1,485.3,379.785Z" transform="translate(-425.213 -168.977)"/></g><g transform="translate(767.764 298.21)"><path class="av" d="M732.783,361.99c4.256-13.382,19.257-28.06,26.057-21.908s-17.592,17.268-17.807,35.075-7.124,0-7.124,0" transform="translate(-683.185 -233.39)"/><path class="aw" d="M733.255,371.823s2.479-14.893,16.618-26.765" transform="translate(-683.066 -231.782)"/><g transform="translate(31.201)"><path class="ax" d="M755.7,326.385a46.249,46.249,0,0,0-2.207,18.261c.932,10.721-9.44,20.949-12.839,27.6-2.777,5.433-4.128,21.468.323,35.182a41.5,41.5,0,0,0,3.919,8.743l-4.076.952a40.353,40.353,0,0,1-3.621-9.5c-3.12-12.529-.793-24.955-3.3-30.808-1.692-3.95-6.416-9.148-10-15.984l-.006-.006c-3.076-5.871-5.313-12.947-4.051-21.481,1.433,2.79,11.64,8.61,13.314,17.468,1.478-7.635-8.445-16.784-12.1-27.125s.394-26.522-2.973-31.467c7.958,2.314,12.4,22.5,12.4,22.5s.894-9.32-1.305-16.923a21.672,21.672,0,0,0-1.173-3.2c-3.652-7.875-5.193-37.979,10.219-46.127a10.174,10.174,0,0,0-.64,2.137c-2.333,12.015,10.786,36.59,1.453,52.226,5.42-2.436,11.654-20.416,13.612-22.046-1.877,9.808,5.561,17.708-.1,29.184s-8.959,19.661-9.073,26.458c2.86-6.917,12.205-16.605,12.573-16.979C756.005,325.523,755.878,325.846,755.7,326.385Z" transform="translate(-718.07 -254.466)"/><path class="ac" d="M739.484,357.844c-2.777,5.433-4.128,21.468.323,35.182l-3.779.19c-3.12-12.529-.793-24.955-3.3-30.808-1.692-3.95-6.416-9.148-10-15.984,14.024,11.451,17.968,6.271,22.362-5.5,3.424-9.149,3.747-22.147,9.442-28.944a46.249,46.249,0,0,0-2.207,18.261C753.254,340.965,742.882,351.193,739.484,357.844Z" transform="translate(-716.904 -240.064)"/><path class="aw" d="M735.4,254.468c-5.4,7.54-7.989,23.017-4.535,41.773s2.59,42.93,2.7,55.449,1.847,30.228-2.153,26.014" transform="translate(-715.257 -254.466)"/><path class="aw" d="M732.671,321.906c1.887-8.091,9.225-8.524,11.922-21.15s3.171-18.552,4.391-20.445" transform="translate(-714.414 -247.995)"/><path class="aw" d="M736.4,328.765c-2.181-6.476-10.356-6.233-11.65-17.727s-4.3-19.046-6.681-21.583" transform="translate(-718.07 -245.705)"/><path class="aw" d="M752.36,311.224c-3.531,4.724-5.554,17.832-9.6,23.5s-7.73,4.7-9.976,7.128" transform="translate(-714.386 -240.254)"/><path class="aw" d="M719.481,322.341c1.436,10.977,7.271,20.366,17.223,25.547" transform="translate(-717.717 -237.471)"/></g><g transform="translate(0 86.41)"><path class="ay" d="M750.009,392.107l-13.938,3.41c-.578-17.063-29.916-32.3-39.768-49.552v-.01c-2.791-4.879-4.011-9.926-2.593-15.215,4.978-18.533,35.971,1.269,49.728,32.013A71.25,71.25,0,0,1,750.009,392.107Z" transform="translate(-693.117 -323.572)"/><path class="az" d="M707.242,333.268s29.23,21.238,33.032,55.634" transform="translate(-689.58 -321.145)"/><path class="ah" d="M743.439,362.753c-.461,1.508-1.956.694-4.454-3.971-6.014-11.215-23.581-28.735-32.133-30.978s-12.92,5.7-10.548,18.152c-2.791-4.879-4.011-9.926-2.593-15.215C698.689,312.207,729.682,332.01,743.439,362.753Z" transform="translate(-693.117 -323.572)"/></g></g><path class="ba" d="M768.325,369.25,760.2,518.37a125.351,125.351,0,0,0-20.372-23.117,175.569,175.569,0,0,0-27.309-20.181L706.76,369.25a5.181,5.181,0,0,1,5.174-5.465h51.217A5.182,5.182,0,0,1,768.325,369.25Z" transform="translate(78.061 71.117)"/><path class="ah" d="M736.714,254.466a10.174,10.174,0,0,0-.64,2.137c-11.951,10.7-9.548,33.561-8.406,47.191a21.672,21.672,0,0,0-1.173-3.2C722.842,292.718,721.3,262.614,736.714,254.466Z" transform="translate(82.395 43.744)"/><path class="bb" d="M761.7,369.25,753.578,518.37a125.351,125.351,0,0,0-20.372-23.117l.171-131.468h23.149A5.182,5.182,0,0,1,761.7,369.25Z" transform="translate(84.686 71.117)"/><g transform="translate(511.205 225.967)"><path class="bc" d="M614.45,209.735V268.2a9.754,9.754,0,0,1-9.748,9.758H497.682a9.753,9.753,0,0,1-9.748-9.758v-58.47Z" transform="translate(-487.934 -193.424)"/><g transform="translate(15.329 21.796)"><rect class="bd" width="19.488" height="45.84"/><rect class="be" width="19.488" height="45.84" transform="translate(38.185)"/><rect class="bf" width="19.488" height="45.84" transform="translate(76.369)"/></g><path class="bg" d="M614.45,206.438V213H487.934v-6.563a9.745,9.745,0,0,1,9.748-9.748H604.7A9.746,9.746,0,0,1,614.45,206.438Z" transform="translate(-487.934 -196.69)"/><path class="as" d="M581.741,203.567a1.774,1.774,0,1,1-1.774-1.773A1.775,1.775,0,0,1,581.741,203.567Z" transform="translate(-465.334 -195.412)"/><path class="as" d="M574.707,203.567a1.774,1.774,0,1,1-1.773-1.773A1.774,1.774,0,0,1,574.707,203.567Z" transform="translate(-467.095 -195.412)"/><path class="as" d="M567.675,203.567a1.774,1.774,0,1,1-1.774-1.773A1.774,1.774,0,0,1,567.675,203.567Z" transform="translate(-468.855 -195.412)"/><g class="bh" transform="translate(10.012 47.403)"><path class="bi" d="M599.047,237.725l-11.535,6.307a12.365,12.365,0,0,1-10.067.113l-3.382-1.688a12.5,12.5,0,0,0-9.739-.054h0a12.47,12.47,0,0,1-9.821-.1l-12.877-6.65a12.478,12.478,0,0,0-9.789-.111l-16.653,7.844c-2.962,1.4-7.721,1.224-10.241-.369l-6.855-4.333" transform="translate(-495.403 -234.6)"/><path class="bj" d="M576.681,237.364c0,.732,1.2,1.324,2.687,1.324s2.686-.593,2.686-1.324-1.2-1.325-2.686-1.325S576.681,236.633,576.681,237.364Z" transform="translate(-475.724 -234.24)"/><ellipse class="bk" cx="2.687" cy="1.325" rx="2.687" ry="1.325" transform="translate(0 2.702)"/></g><g transform="translate(10.012 36.549)"><path class="bl" d="M599.047,232.256l-11.535,12.79a6.923,6.923,0,0,1-10.067.229l-3.382-3.424a6.923,6.923,0,0,0-9.739-.11h0a6.925,6.925,0,0,1-9.821-.2l-12.877-13.484a6.925,6.925,0,0,0-9.789-.225l-16.653,15.9a6.924,6.924,0,0,1-10.241-.748l-6.855-8.784" transform="translate(-495.403 -225.92)"/><path class="bm" d="M576.681,231.525a2.686,2.686,0,1,0,2.687-2.687A2.687,2.687,0,0,0,576.681,231.525Z" transform="translate(-475.724 -225.19)"/><path class="bn" d="M495.941,232.99a2.686,2.686,0,1,0,2.686-2.687A2.686,2.686,0,0,0,495.941,232.99Z" transform="translate(-495.941 -224.823)"/></g><path class="bo" d="M582.2,249.934v6.638a1.739,1.739,0,0,1-1.737,1.737h-20.72A1.74,1.74,0,0,1,558,256.572v-6.638a1.741,1.741,0,0,1,1.743-1.743H568l1.807-1.808,1.813,1.808h8.845A1.74,1.74,0,0,1,582.2,249.934Z" transform="translate(-470.389 -184.247)"/><path class="bp" d="M583.586,248.553v6.638a1.74,1.74,0,0,1-1.737,1.737h-20.72a1.742,1.742,0,0,1-1.744-1.737v-6.638a1.743,1.743,0,0,1,1.744-1.744h8.255L571.191,245,573,246.809h8.845A1.742,1.742,0,0,1,583.586,248.553Z" transform="translate(-470.043 -184.593)"/><path class="bq" d="M575.205,251.426h-9.937a.9.9,0,0,1-.9-.9h0a.9.9,0,0,1,.9-.9h9.937a.9.9,0,0,1,.9.9h0A.9.9,0,0,1,575.205,251.426Z" transform="translate(-468.794 -183.433)"/></g><g transform="translate(727.834 212.476)"><path class="br" d="M726.26,192.7v63.683a6.8,6.8,0,0,1-6.8,6.8H667.986a6.8,6.8,0,0,1-6.8-6.8V192.7a6.8,6.8,0,0,1,6.8-6.8h51.477A6.8,6.8,0,0,1,726.26,192.7Z" transform="translate(-661.183 -185.901)"/><path class="bs" d="M726.26,192.7v6.69H661.183V192.7a6.8,6.8,0,0,1,6.8-6.8h51.477A6.8,6.8,0,0,1,726.26,192.7Z" transform="translate(-661.183 -185.901)"/><circle class="as" cx="1.161" cy="1.161" r="1.161" transform="translate(54.366 5.585)"/><circle class="as" cx="1.161" cy="1.161" r="1.161" transform="translate(47.648 5.585)"/><path class="as" d="M696.239,191.529a1.161,1.161,0,1,1-1.162-1.162A1.161,1.161,0,0,1,696.239,191.529Z" transform="translate(-652.987 -184.783)"/><g transform="translate(18.98 24.123)"><path class="bt" d="M688.344,205.193h0a5.68,5.68,0,0,0-5.679,5.679v11.045a5.679,5.679,0,0,0,5.679,5.678h0a5.679,5.679,0,0,0,5.679-5.678V210.872A5.68,5.68,0,0,0,688.344,205.193Z" transform="translate(-674.784 -205.193)"/><path class="bu" d="M703.479,219.325v16.149a3.739,3.739,0,0,1-3.74,3.741h-19.63a3.746,3.746,0,0,1-3.747-3.741V219.325a3.746,3.746,0,0,1,3.747-3.741h19.63A3.739,3.739,0,0,1,703.479,219.325Z" transform="translate(-676.362 -202.591)"/><path class="ac" d="M702.685,218.754V234.68a3.739,3.739,0,0,1-3.74,3.741H679.536V222.5a3.745,3.745,0,0,1,3.741-3.746Z" transform="translate(-675.567 -201.797)"/><circle class="ac" cx="5.545" cy="5.545" r="5.545" transform="translate(8.016 20.374)"/><g transform="translate(12.468 23.145)"><path class="bv" d="M687.361,229.25h0a.77.77,0,0,1-.769-.77v-4.006a.77.77,0,0,1,.769-.77h0a.77.77,0,0,1,.769.77v4.006A.77.77,0,0,1,687.361,229.25Z" transform="translate(-686.268 -223.703)"/><path class="bw" d="M687.426,227.51h0a1.093,1.093,0,0,1-1.093-1.093v-.463a1.093,1.093,0,0,1,1.093-1.093h0a1.093,1.093,0,0,1,1.093,1.093v.463A1.093,1.093,0,0,1,687.426,227.51Z" transform="translate(-686.333 -223.413)"/></g></g></g><path class="bx" d="M644.211,210.775l-7.517,2.317a12.621,12.621,0,0,0-8.614,9.378l-1.672,7.687-2.318-7.517a12.618,12.618,0,0,0-9.378-8.614l-7.686-1.672,7.517-2.317a12.62,12.62,0,0,0,8.614-9.378l1.672-7.687,2.317,7.517a12.618,12.618,0,0,0,9.378,8.614Z" transform="translate(53.091 28.346)"/><path class="by" d="M678.9,282.241l-7.482,2.306a12.558,12.558,0,0,0-8.573,9.334l-1.664,7.65-2.306-7.481a12.563,12.563,0,0,0-9.334-8.574l-7.651-1.663,7.482-2.307a12.561,12.561,0,0,0,8.574-9.334l1.663-7.65L661.917,272a12.558,12.558,0,0,0,9.333,8.573Z" transform="translate(61.821 46.262)"/><path class="bz" d="M682.988,266.956l-2.8-1.482a5.086,5.086,0,0,0-5.125.218L672.4,267.4l1.481-2.8a5.081,5.081,0,0,0-.218-5.124l-1.713-2.666,2.8,1.482a5.086,5.086,0,0,0,5.125-.218l2.665-1.713-1.48,2.8a5.081,5.081,0,0,0,.218,5.124Z" transform="translate(69.346 44.219)"/></g></g></svg>